<svg version="1.1" id="Шар_1" xmlns="http://www.w3.org/2000/svg" x="0" y="0" viewBox="0 0 175 165" xml:space="preserve"><style>.st1{fill:none;stroke:#fff;stroke-miterlimit:10}.st3{fill:#fff}</style><path fill="#555" d="M.21 0h174.58v165H.21z"/><path class="st1" d="M111.24 77l-6.02-13.59m-11.18.63l-5.57-5.88m19.45 31.93l3.04-14.75"/><path d="M121.27 116.32H62.13c-9.89 0-17.9-8.01-17.9-17.9V39.28c0-9.89 8.01-17.9 17.9-17.9h59.14c9.89 0 17.9 8.01 17.9 17.9v59.14c0 9.89-8.01 17.9-17.9 17.9z" fill="none" stroke="#fff" stroke-width="5" stroke-miterlimit="10"/><path class="st3" d="M109.93 110.57H67.56c-5.24 0-9.49-4.25-9.49-9.49h61.35c0 5.24-4.25 9.49-9.49 9.49zm10.72-12.26H56.76a2.2 2.2 0 010-4.4h63.89a2.2 2.2 0 010 4.4zm17.06-61.49H73.62l-11.24-3.83v-3.83h59.87zM82.69 52.44h-7.2V39h10.08z"/><path class="st3" d="M125.05 30.6h14.64v5.89h-14.64z"/><path d="M57.02 90.09h63.36M60.06 76.11h57.4" stroke="#fff" stroke-miterlimit="10" fill="#fff"/><path class="st1" d="M57.99 89.92l2.13-14.23m59.38 14.4l-2.04-14.75M75.25 63.26L60.06 76.11m45.16-12.7l12.24 11.93M75.25 63.26l29.97.15M71.17 90.09l-5.18-14.12m-7.22 14.12l7.22-14.12m5.18 14.12l8.63-14.75m9.27 14.75L79.8 75.34m28.25 14.12l-10.2-14.12M89.9 90.09l7.95-14.75m20.87 14.75l-7.76-14.75m-16.92-11.3l16.92 11.3m-13.11 0l-3.81-11.3M79.8 75.34l14.24-11.3m-18.79-.78l4.55 12.08m-13.81.63l9.26-12.71m0 0l13.82-5.18m16.15 5.33l-16.15-5.33"/><path class="st3" d="M137.19 77.54c-3.34 0-6.04-2.7-6.04-6.04v-8.79c0-3.34 2.7-6.04 6.04-6.04s3.34 20.87 0 20.87zm-67.11 43.78h-9.72a.68.68 0 01-.68-.68v-.34H71.1a1.03 1.03 0 01-1.02 1.02zm51.75 0h-9.72a.68.68 0 01-.68-.68v-.34h11.42c0 .56-.46 1.02-1.02 1.02z"/><path class="st1" d="M73.68 54.82h10.76m-5.38 1.3v4.09"/></svg>