<svg version="1.1" id="Шар_1" xmlns="http://www.w3.org/2000/svg" x="0" y="0" viewBox="0 0 175 165" xml:space="preserve"><style>.st2{fill:#fff}</style><path fill="#555" d="M.21 0h174.58v165H.21z"/><path fill="none" d="M130.97 67.72l-3.76-18.66"/><path class="st2" d="M124.78 45.67c-2.45.34-4.54 1.96-5.68 4.23-.24.47-3.74 10.27-3.74 10.27h-3.05l-4.97-34.35 13.96-3.03 3.48 22.88z"/><path class="st2" d="M114.92 16.02v44.15H60.06l-.36-44.08.36-.02c.08.05.11-.07.19-.03-.17.03-.02-.01-.19.03 2.59 1.35 5.26 2.39 8.68 3.3 5.32 1.53 11.7 2.42 18.56 2.42 9.37 0 17.85-1.66 23.95-4.34 1.17-.47 2.27-.98 3.3-1.51-.07-.02-.17.06-.24.05.1-.06.09.01.19-.05l.42.08z"/><path class="st2" d="M70.63 24.6a8.89 8.89 0 11-17.78 0c0-4.1 2.78-7.56 6.56-8.58.09-.02.17-.05.26-.07 2.65 1.37 5.78 2.55 9.29 3.46a8.9 8.9 0 011.67 5.19z"/><path class="st2" d="M49.7 45.38c2.45.34 4.54 1.96 5.68 4.23.24.47 4.23 10.6 4.23 10.6h2.72l4.82-34.68-14.28-2.07-3.17 21.92zm54-20.79a8.89 8.89 0 1017.78 0c0-4.1-2.78-7.56-6.56-8.58-.09-.02-.17-.05-.26-.07-2.65 1.37-5.78 2.55-9.29 3.46a8.9 8.9 0 00-1.67 5.19z"/><path class="st2" d="M63.34 17.91c6.11 3.45 14.58 5.59 23.95 5.59 6.86 0 23.91-2.6 27.63-7.54-.02.03-2.25-.23-4.35.03-2.43.3-5.06 1.15-5.1 1.16-5.34 1.8-11.45 1.95-18.04 1.95-6.68 0-21.21-1.3-26.59-3.14l-.36.06c-2.1-.72 4.65 2.82 2.86 1.89z"/><ellipse transform="rotate(-5.732 48.533 54.497)" class="st2" cx="48.52" cy="54.49" rx="4.86" ry="4.48"/><path class="st2" d="M56.23 63.6l-9.35 2.49-.13-.44v-.01L43.74 55.5h.04l9.31-2.49.24.81.95 3.21z"/><path class="st2" d="M59.47 73.15c.1.02.16.02.17.02a.653.653 0 00-.17-.02zm-1.33-8.79c-.04-.07.49.2.46.15-.1-.18-.19-.11-.18-.14-.92-.21-2.04-1.2-2.13-2.03-.02-.18-1.43-3.55-1.98-4.99-4.69 1.83-7.77 5.14-7.53 8.62.24.61.72 1.7 1.69 2.79 1.41 1.6 3.35 2.65 5.17 3.35 2.22.84 4.42 1.43 5.38 1.4.02.01.03.01.06 0 .03 0 .07 0 .1-.01.17-.02.12-.29.17-.36.49-4.84-.7-7.72-1.21-8.78zm26.3.25l-26.3-.25h-.04l.92 9.14v.01l.06-.01c.03 0 .07 0 .1-.01l5.58-.56c6.27-1.49 20.14-3.94 19.72-8.11-.02-.22 0-.01-.04-.21z"/><path transform="rotate(-90 86.759 68.93)" class="st2" d="M82.18 40.77h9.15V97.1h-9.15z"/><ellipse transform="rotate(-84.267 126.475 54.526)" class="st2" cx="126.48" cy="54.53" rx="4.48" ry="4.86"/><path class="st2" d="M118.77 63.64l9.35 2.49.13-.45 3.01-10.14-.04-.01-9.31-2.48-.24.81-.95 3.2z"/><path class="st2" d="M115.36 73.21c.02 0 .07-.01.17-.02a.392.392 0 00-.17.02zm.29-.04c.06.06 0 .33.17.36.03.01.07.01.1.01.02.01.04.01.06 0 .96.03 3.16-.56 5.38-1.4 1.82-.7 3.76-1.75 5.17-3.35a9.205 9.205 0 001.69-2.79c.24-3.48-2.84-6.79-7.53-8.62-.55 1.44-1.96 4.81-1.98 4.99-.09.83-1.21 1.82-2.13 2.03.01.03-.08-.04-.18.14-.02.06.5-.22.46-.15-.51 1.07-1.7 3.95-1.21 8.78zm-25.13-8.32c-.42 4.17 13.46 6.62 19.72 8.11l5.58.56c.03.01.07.01.1.01l.06.01v-.01l.92-9.14h-.04l-26.3.25c-.04.21-.02 0-.04.21zm-30.2 54.69l-1.58-.24c-1.65-.25-2.81-1.8-2.56-3.46l6.61-44.37c.25-1.65 1.8-2.81 3.46-2.56l1.58.24c1.65.25 2.81 1.8 2.56 3.46l-6.61 44.37a3.066 3.066 0 01-3.46 2.56z"/><path class="st2" d="M115.71 119.54l1.58-.24c1.65-.25 2.81-1.8 2.56-3.46l-6.61-44.37c-.25-1.65-1.8-2.81-3.46-2.56l-1.58.24c-1.65.25-2.81 1.8-2.56 3.46l6.61 44.37c.25 1.65 1.81 2.8 3.46 2.56z"/></svg>