<svg version="1.1" id="Шар_1" xmlns="http://www.w3.org/2000/svg" x="0" y="0" viewBox="0 0 175 165" xml:space="preserve"><style>.st0{fill:#555}.st1{fill:#fff}</style><path class="st0" d="M.21 0h174.58v165H.21z"/><path class="st1" d="M155.27 122.09H24.77c-2.78 0-5.04-2.26-5.04-5.04V35.12c0-2.78 2.26-5.04 5.04-5.04h130.5c2.78 0 5.04 2.26 5.04 5.04v81.93c0 2.78-2.26 5.04-5.04 5.04z"/><path class="st0" d="M104.49 111.11H40.41a9.36 9.36 0 01-9.36-9.36v-51a9.36 9.36 0 019.36-9.36h64.08a9.36 9.36 0 019.36 9.36v51a9.36 9.36 0 01-9.36 9.36zm21.24-70.02h25.92v12.24h-25.92zm0 20.88h25.92v7.2h-25.92z"/><circle class="st0" cx="136.85" cy="99.29" r="11.52"/><path class="st1" d="M99.87 100.49h-2.76c-1.89 0-3.42-1.53-3.42-3.42V55.43c0-1.89 1.53-3.42 3.42-3.42h2.76c1.89 0 3.42 1.53 3.42 3.42v41.64c0 1.89-1.53 3.42-3.42 3.42z"/></svg>