<svg version="1.1" id="Шар_1" xmlns="http://www.w3.org/2000/svg" x="0" y="0" viewBox="0 0 175 165" xml:space="preserve"><style>.st1{fill:none;stroke:#fff;stroke-width:10;stroke-miterlimit:10}</style><path fill="#555" d="M.21 0h174.58v165H.21z"/><path class="st1" d="M57.62 43.79V30.41c0-4.85 4.03-8.79 9-8.79h41.76c4.97 0 9 3.94 9 8.79v13.38"/><path class="st1" d="M117.38 92.77h4.01c4.97 0 9-3.94 9-8.79v-31.4c0-4.86-4.03-8.79-9-8.79H53.61c-4.97 0-9 3.93-9 8.79v31.39c0 4.85 4.03 8.79 9 8.79h4.01"/><path class="st1" d="M113.87 116.68H61.13c-1.94 0-3.51-1.57-3.51-3.51v-35c0-1.94 1.57-3.51 3.51-3.51h52.73c1.94 0 3.51 1.57 3.51 3.51v35a3.493 3.493 0 01-3.5 3.51z"/></svg>