<svg version="1.1" id="Шар_1" xmlns="http://www.w3.org/2000/svg" x="0" y="0" viewBox="0 0 175 165" xml:space="preserve"><style>.st0{fill:#555}.st2{fill:#fff}.st4{stroke:#fff;stroke-width:.5;stroke-miterlimit:10}.st4,.st5{fill:none}.st5,.st7,.st8,.st9{stroke-miterlimit:10}.st5{stroke:#fff;stroke-width:.25}.st7,.st8,.st9{fill:#555;stroke:#fff}.st8,.st9{fill:#fff}.st9{stroke:#555}</style><path class="st0" d="M.21 0h174.58v165H.21z"/><path fill="none" d="M130.97 67.72l-3.76-18.66"/><path class="st2" d="M110.08 33.36h23.02v12.71h-23.02zm-66.82-.03h23.02v12.71H43.26z"/><path fill="none" stroke="#fff" stroke-width="2" stroke-miterlimit="10" d="M73.15 22.71h30.92v17.01H73.15z"/><path class="st4" d="M75.51 36.19l.94-1.63m1.42 1.97l-1.42-1.97m2.58-9.36l-1.16 11.33m2.66.05l-1.5-11.38m2.28 9.27l-.78 2.11m2.15-.05l-1.37-2.06m2.4-9.36l-1.03 11.42m2.36-.17l-1.33-11.25m1.98 9.53l-.65 1.72m1.98.05l-1.33-1.77m2.62-9.23l-1.29 11m2.45.08l-1.16-11.08m2.1 9.19l-.94 1.89m2.23.13l-1.29-2.02m2.32-9.45L91.7 36.62m2.36-.17l-1.33-11.3m2.19 9.54l-.86 1.76m2.19.17l-1.33-1.93m2.45-9.41l-1.12 11.34m2.41-.09l-1.29-11.25m1.97 9.32l-.68 1.93m2.23.18l-1.55-2.11m2.24 1.05l-.69 1.06"/><path class="st2" d="M83.2 39.92h11.29v3.7H83.2zm-2.28 3.71h15.89v1.52H80.92z"/><ellipse transform="rotate(-20.82 111.099 27.137)" class="st2" cx="111.08" cy="27.14" rx="1.29" ry=".89"/><path class="st5" d="M111.46 20.64l.31 6.13"/><path class="st4" d="M113.98 21.56l-2.52-.92"/><ellipse transform="rotate(-17.331 117.691 25.625)" class="st2" cx="117.7" cy="25.63" rx="1.43" ry=".97"/><ellipse transform="rotate(-17.331 123.064 24.832)" class="st2" cx="123.07" cy="24.83" rx="1.43" ry=".97"/><path class="st4" d="M119.82 19.38l-1.03 5.45m6.45-5.56l-1.19 5.15m-4.23-5.04l5.42-.11m-5.93 2.06l5.51-.23"/><ellipse transform="rotate(-83.131 127.165 27.39)" class="st2" cx="127.17" cy="27.39" rx=".89" ry="1.29"/><path class="st5" d="M130.52 21.8l-2.57 5.58"/><path class="st4" d="M132.32 23.79l-1.8-1.99"/><ellipse transform="rotate(-33.081 45.347 29.268)" class="st2" cx="45.35" cy="29.27" rx="1.29" ry=".89"/><path class="st5" d="M44.33 22.84l1.61 5.92"/><path class="st4" d="M46.99 23.2l-2.66-.36"/><ellipse transform="rotate(-29.585 51.488 26.381)" class="st2" cx="51.49" cy="26.38" rx="1.43" ry=".97"/><ellipse transform="rotate(-29.585 56.57 24.467)" class="st2" cx="56.57" cy="24.47" rx="1.43" ry=".97"/><path class="st4" d="M52.23 19.83l.16 5.54m5.12-6.8l-.07 5.29m-5.21-4.03l5.28-1.26m-5.36 3.27l5.34-1.39"/><ellipse transform="rotate(-5.377 61.114 26.082)" class="st2" cx="61.12" cy="26.09" rx="1.29" ry=".89"/><path class="st5" d="M63.21 19.92l-1.33 6"/><path class="st4" d="M65.39 21.48l-2.18-1.56"/><path class="st2" d="M39.39 47.61h97.4v5.15h-97.4zm97.4 7.73h-97.4l-12.07 9.8h122.16zm-109.47 9.8h122.16v3.09H27.32z"/><path d="M112.51 61.79h26.98m-63.94.02h26.99m-64.44 0h26.98" stroke="#555" fill="none" stroke-miterlimit="10"/><path class="st0" d="M44.01 56.96l-1.67.07.77-1 1.44.03zm-2.54 2.48l-1.67.06.77-.99 1.43.03zm5.72-2.39l-1.66.07.77-1 1.43.03zm-2.14 2.39l-1.67.06.77-.99 1.43.03zm44.2-3.37h1.72v.77h-1.72zm3.16.13h1.72v.77h-1.72zm3.34 0h1.72v.77h-1.72zm3.34 0h1.72v.77h-1.72zm-16.46 0h1.72v.77h-1.72zm3.1 0h1.72v.77h-1.72zm-3.58 2.39h1.72v.77h-1.72zm3.58 0h1.72v.77h-1.72zm3.58 0h1.72v.77h-1.72zm3.58 0h1.72v.77h-1.72zm3.58 0h1.72v.77h-1.72zm3.34 0h1.72v.77h-1.72zm10.9-1.62h-1.6l-.46-1.02h1.6zm3.57-.05h-1.6l-.46-1.02h1.6zm3.1 0h-1.6l-.46-1.02h1.6zm3.58 0h-1.6l-.46-1.02h1.6zm3.1 0h-1.6L122 55.9h1.6zm3.34 0h-1.6l-.46-1.02h1.6zm3.58 0h-1.6l-.46-1.02h1.6zm3.34 0h-1.6l-.46-1.02h1.6zm-22.06 2.65h-1.61l-.45-1.02h1.6zm3.57-.05h-1.61l-.45-1.02h1.6zm3.1 0h-1.61l-.45-1.02h1.6zm3.58 0h-1.61l-.45-1.02h1.6zm3.1 0h-1.6l-.46-1.02h1.6zm3.34 0h-1.6l-.46-1.02h1.6zm3.58 0h-1.61l-.45-1.02h1.6zm3.34 0h-1.61l-.45-1.02h1.6z"/><circle class="st7" cx="50.23" cy="39.76" r="4.36"/><circle class="st8" cx="50.23" cy="39.76" r="1.03"/><circle class="st7" cx="59.31" cy="39.49" r="4.36"/><circle class="st8" cx="59.31" cy="39.49" r="1.03"/><circle class="st7" cx="117.5" cy="39.62" r="4.36"/><circle class="st8" cx="117.5" cy="39.62" r="1.03"/><circle class="st7" cx="126.57" cy="39.35" r="4.36"/><circle class="st8" cx="126.57" cy="39.35" r="1.03"/><circle class="st9" cx="68.89" cy="51.97" r="10.57"/><path class="st9" d="M71.13 93.46h-4.6c-5.88 0-10.69-4.81-10.69-10.69V67.54c0-5.88 4.81-10.69 10.69-10.69h4.6c5.88 0 10.69 4.81 10.69 10.69v15.23c0 5.87-4.81 10.69-10.69 10.69zm7.17 21.82H49.19c-1.06 0-1.92-.87-1.92-1.92v-1.16c0-1.06.87-1.92 1.92-1.92H78.3c1.06 0 1.92.87 1.92 1.92v1.16c0 1.05-.86 1.92-1.92 1.92z"/><path class="st2" d="M84.15 108.7l-1.68-.34a3.992 3.992 0 01-3.12-4.69L83 85.44a3.992 3.992 0 014.69-3.12l1.68.34c2.15.43 3.55 2.54 3.12 4.69l-3.65 18.23a3.992 3.992 0 01-4.69 3.12zm-19.29 5.19h-1.72c-1.57 0-2.86-1.29-2.86-2.86v-17.3c0-1.57 1.29-2.86 2.86-2.86h1.72c1.57 0 2.86 1.29 2.86 2.86v17.3c0 1.57-1.29 2.86-2.86 2.86z"/><path class="st9" d="M83.4 95.03H65.31c-1.73 0-3.14-1.41-3.14-3.14V90c0-1.73 1.41-3.14 3.14-3.14H83.4c1.73 0 3.14 1.41 3.14 3.14v1.89c0 1.73-1.41 3.14-3.14 3.14z"/><path class="st9" d="M72.76 95.32H48.63c-3.23 0-5.88-2.64-5.88-5.88V61.97c0-3.23 2.64-5.88 5.88-5.88h24.14c3.23 0 5.88 2.64 5.88 5.88v27.47c-.01 3.24-2.65 5.88-5.89 5.88z"/><path class="st2" d="M84.7 86.35h-4.34l-.4-3.87 6.36.1zm6.26-8.28h-7.97c-1.8 0-3.28-1.48-3.28-3.28 0-1.8 0-4.83 1.71-4.19l9.54.91c1.8 0 3.28 1.48 3.28 3.28 0 1.8-1.48 3.28-3.28 3.28zm-7.62 16.64H67.72v-7.39h14.9l3.17 5.28c.07.76-1.64 2.11-2.45 2.11z"/></svg>