<svg version="1.1" id="Шар_1" xmlns="http://www.w3.org/2000/svg" x="0" y="0" viewBox="0 0 175 165" xml:space="preserve"><style>.st1{fill:#fff}</style><path fill="#555" d="M.42 0H175v165H.42z"/><path class="st1" d="M116.07 99.72l-8.15 7.06c-5.14-4.71-12.41-7.64-20.48-7.64-7.68 0-14.65 2.66-19.73 6.99l-8.15-7.06c7.17-6.13 17.01-9.91 27.88-9.91 11.26 0 21.41 4.05 28.63 10.56zm18.31-19.4l-6.82 6.82C117.4 76.69 103.18 70.2 87.44 70.2c-15.35 0-29.26 6.18-39.37 16.19l-6.82-6.82C53.1 67.81 69.43 60.55 87.44 60.55c18.4 0 35.03 7.57 46.94 19.77z"/><path class="st1" d="M153.75 60.96l-7.88 7.88C131.02 53.69 110.33 44.3 87.44 44.3c-22.51 0-42.89 9.08-57.68 23.78l-7.88-7.88c16.81-16.71 39.98-27.04 65.56-27.04 25.97 0 49.45 10.64 66.31 27.8z"/><circle class="st1" cx="25.62" cy="64.37" r="5.59"/><ellipse transform="rotate(-37.001 149.2 64.178)" class="st1" cx="149.2" cy="64.18" rx="5.57" ry="6.11"/><ellipse transform="rotate(-53.63 112.082 103.37)" class="st1" cx="112.09" cy="103.37" rx="5.27" ry="6.13"/><ellipse transform="rotate(-34.658 63.35 102.699)" class="st1" cx="63.35" cy="102.7" rx="6.13" ry="5.22"/><ellipse transform="rotate(-56.779 44.416 83.272)" class="st1" cx="44.42" cy="83.28" rx="5.28" ry="4.81"/><ellipse transform="rotate(-30 130.567 83.282)" class="st1" cx="130.57" cy="83.28" rx="4.81" ry="5.28"/><circle class="st1" cx="87.82" cy="122.16" r="9.68"/></svg>