<svg xmlns="http://www.w3.org/2000/svg" viewBox="0 0 175 165"><path d="M146.1 46.8c-1.2-1.7-2.7-3.2-4.4-4.4-2.5-1.7-5.5-2.6-8.8-2.6H42.1c-3.1 0-6 .9-8.5 2.5-1.8 1.1-3.3 2.6-4.5 4.3-1.8 2.6-2.9 5.7-2.9 9.1v53.7c0 2.8.7 5.4 2 7.7 1 1.8 2.4 3.5 4.1 4.7 2.7 2.1 6.1 3.4 9.8 3.4h90.8c3.6 0 6.9-1.2 9.5-3.2 1.7-1.3 3.1-2.8 4.1-4.6 1.4-2.3 2.2-5.1 2.2-8V55.7c.1-3.3-.9-6.4-2.6-8.9zm-104-.8h90.8c1.5 0 2.9.3 4.2 1l-30.5 30.5-4.4 4.4-4.9 4.9c-5.3 5.3-14 5.3-19.3 0l-5.3-5.3-4.4-4.5-30.1-30.2c1.2-.5 2.5-.8 3.9-.8zm-9.7 63.3V55.7c0-1.7.4-3.2 1.2-4.6l30.3 30.3-31 31c-.3-1-.5-2-.5-3.1zm100.5 9.7H42.1c-2 0-3.8-.6-5.3-1.6l31.6-31.6 5.3 5.3c3.9 3.9 9 5.8 14.1 5.8S98 95 101.9 91.1l4.9-4.9 31.3 31.3c-1.6 1-3.3 1.5-5.2 1.5zm9.7-9.7c0 1.2-.2 2.3-.6 3.4l-30.9-30.9 30.5-30.5c.7 1.3 1 2.8 1 4.3v53.7z"/></svg>