<?xml version="1.0" encoding="utf-8"?>
<!-- Generator: Adobe Illustrator 24.2.3, SVG Export Plug-In . SVG Version: 6.00 Build 0)  -->
<svg version="1.1" id="Шар_1" xmlns="http://www.w3.org/2000/svg" xmlns:xlink="http://www.w3.org/1999/xlink" x="0px" y="0px"
	 viewBox="0 0 175 165" style="enable-background:new 0 0 175 165;" xml:space="preserve">
<style type="text/css">
	.st0{fill:#555555;}
	.st1{fill:none;stroke:#FFFFFF;stroke-miterlimit:10;}
	.st2{fill:none;stroke:#FFFFFF;stroke-width:5;stroke-miterlimit:10;}
	.st3{fill:#FFFFFF;}
	.st4{fill:#FFFFFF;stroke:#FFFFFF;stroke-miterlimit:10;}
</style>
<rect x="0.21" class="st0" width="174.58" height="165"/>
<line class="st1" x1="111.24" y1="77" x2="105.22" y2="63.41"/>
<line class="st1" x1="94.04" y1="64.04" x2="88.47" y2="58.16"/>
<line class="st1" x1="107.92" y1="90.09" x2="110.96" y2="75.34"/>
<path class="st2" d="M121.27,116.32H62.13c-9.89,0-17.9-8.01-17.9-17.9V39.28c0-9.89,8.01-17.9,17.9-17.9h59.14
	c9.89,0,17.9,8.01,17.9,17.9v59.14C139.17,108.31,131.16,116.32,121.27,116.32z"/>
<path class="st3" d="M109.93,110.57H67.56c-5.24,0-9.49-4.25-9.49-9.49v0h61.35v0C119.42,106.32,115.17,110.57,109.93,110.57z"/>
<path class="st3" d="M120.65,98.31H56.76c-1.21,0-2.2-0.98-2.2-2.2l0,0c0-1.21,0.98-2.2,2.2-2.2h63.89c1.21,0,2.2,0.98,2.2,2.2l0,0
	C122.85,97.33,121.86,98.31,120.65,98.31z"/>
<polygon class="st3" points="137.71,36.82 73.62,36.82 62.38,32.99 62.38,29.16 122.25,29.16 "/>
<polygon class="st3" points="82.69,52.44 75.49,52.44 75.49,39 85.57,39 "/>
<rect x="125.05" y="30.6" class="st3" width="14.64" height="5.89"/>
<line class="st4" x1="57.02" y1="90.09" x2="120.38" y2="90.09"/>
<line class="st4" x1="60.06" y1="76.11" x2="117.46" y2="76.11"/>
<line class="st1" x1="57.99" y1="89.92" x2="60.12" y2="75.69"/>
<line class="st1" x1="119.5" y1="90.09" x2="117.46" y2="75.34"/>
<line class="st1" x1="75.25" y1="63.26" x2="60.06" y2="76.11"/>
<line class="st1" x1="105.22" y1="63.41" x2="117.46" y2="75.34"/>
<line class="st1" x1="75.25" y1="63.26" x2="105.22" y2="63.41"/>
<line class="st1" x1="71.17" y1="90.09" x2="65.99" y2="75.97"/>
<line class="st1" x1="58.77" y1="90.09" x2="65.99" y2="75.97"/>
<line class="st1" x1="71.17" y1="90.09" x2="79.8" y2="75.34"/>
<line class="st1" x1="89.07" y1="90.09" x2="79.8" y2="75.34"/>
<line class="st1" x1="108.05" y1="89.46" x2="97.85" y2="75.34"/>
<line class="st1" x1="89.9" y1="90.09" x2="97.85" y2="75.34"/>
<line class="st1" x1="118.72" y1="90.09" x2="110.96" y2="75.34"/>
<line class="st1" x1="94.04" y1="64.04" x2="110.96" y2="75.34"/>
<line class="st1" x1="97.85" y1="75.34" x2="94.04" y2="64.04"/>
<line class="st1" x1="79.8" y1="75.34" x2="94.04" y2="64.04"/>
<line class="st1" x1="75.25" y1="63.26" x2="79.8" y2="75.34"/>
<line class="st1" x1="65.99" y1="75.97" x2="75.25" y2="63.26"/>
<line class="st1" x1="75.25" y1="63.26" x2="89.07" y2="58.08"/>
<line class="st1" x1="105.22" y1="63.41" x2="89.07" y2="58.08"/>
<path class="st3" d="M137.19,77.54L137.19,77.54c-3.34,0-6.04-2.7-6.04-6.04v-8.79c0-3.34,2.7-6.04,6.04-6.04l0,0
	C140.53,56.67,140.53,77.54,137.19,77.54z"/>
<path class="st3" d="M70.08,121.32h-9.72c-0.37,0-0.68-0.3-0.68-0.68v-0.34h11.42l0,0C71.09,120.86,70.64,121.32,70.08,121.32z"/>
<path class="st3" d="M121.83,121.32h-9.72c-0.37,0-0.68-0.3-0.68-0.68v-0.34h11.42l0,0C122.85,120.86,122.39,121.32,121.83,121.32z"
	/>
<line class="st1" x1="73.68" y1="54.82" x2="84.44" y2="54.82"/>
<line class="st1" x1="79.06" y1="56.12" x2="79.06" y2="60.21"/>
</svg>
