<svg xmlns="http://www.w3.org/2000/svg" viewBox="0 0 101 103" width="101" height="103">
	<style>
		tspan { white-space:pre }
		.shp0 { fill: #ffffff } 
	</style>
	<g id="Layer">
		<path id="Layer" class="shp0" d="M63.32 44.73L64.23 44.32L70.27 57.94L69.35 58.35L63.32 44.73Z" />
		<path id="Layer" class="shp0" d="M46.65 39.64L47.38 38.96L52.95 44.84L52.22 45.53L46.65 39.64Z" />
		<path id="Layer" class="shp0" d="M66 71.2L69.04 56.41L70.02 56.61L66.98 71.4L66 71.2Z" />
		<path id="Layer" fill-rule="evenodd" class="shp0" d="M79.8 100L20.7 100C9.5 100 0.3 90.8 0.3 79.6L0.3 20.4C0.3 9.2 9.5 0 20.7 0L79.8 0C91 0 100.2 9.2 100.2 20.4L100.2 79.5C100.2 90.8 91.1 100 79.8 100ZM20.7 5C12.2 5 5.3 11.9 5.3 20.4L5.3 79.5C5.3 88 12.2 94.9 20.7 94.9L79.8 94.9C88.3 94.9 95.2 88 95.2 79.5L95.2 20.4C95.2 11.9 88.3 5 79.8 5L20.7 5Z" />
		<path id="Layer" class="shp0" d="M68.5 91.7L26.1 91.7C20.9 91.7 16.6 87.5 16.6 82.2L16.6 82.2L78 82.2L78 82.2C78 87.5 73.7 91.7 68.5 91.7Z" />
		<path id="Layer" class="shp0" d="M79.2 79.5L15.3 79.5C14.1 79.5 13.1 78.5 13.1 77.3L13.1 77.3C13.1 76.1 14.1 75.1 15.3 75.1L79.2 75.1C80.4 75.1 81.4 76.1 81.4 77.3L81.4 77.3C81.4 78.5 80.4 79.5 79.2 79.5Z" />
		<path id="Layer" class="shp0" d="M96.2 18L32.2 18L20.9 14.1L20.9 10.3L80.8 10.3L96.2 18Z" />
		<path id="Layer" class="shp0" d="M41.2 33.6L34 33.6L34 20.2L44.1 20.2L41.2 33.6Z" />
		<path id="Layer" class="shp0" d="M83.6 11.8L98.2 11.8L98.2 17.7L83.6 17.7L83.6 11.8Z" />
		<path id="Layer" class="shp0" d="M15.6 70.7L79 70.7L79 71.7L15.6 71.7L15.6 70.7Z" />
		<path id="Layer" class="shp0" d="M18.6 56.8L76 56.8L76 57.8L18.6 57.8L18.6 56.8Z" />
		<path id="Layer" class="shp0" d="M16.07 71L18.21 56.76L19.2 56.91L17.06 71.15L16.07 71Z" />
		<path id="Layer" class="shp0" d="M75.49 56.54L76.48 56.41L78.52 71.17L77.53 71.3L75.49 56.54Z" />
		<path id="Layer" class="shp0" d="M18.21 56.88L33.41 44.03L34.05 44.8L18.86 57.64L18.21 56.88Z" />
		<path id="Layer" class="shp0" d="M63.44 44.91L64.14 44.2L76.38 56.13L75.68 56.85L63.44 44.91Z" />
		<path id="Layer" class="shp0" d="M33.79 44.88L33.79 43.88L63.79 44.03L63.79 45.03L33.79 44.88Z" />
		<path id="Layer" class="shp0" d="M24.05 57.34L24.99 56.99L30.16 71.07L29.22 71.42L24.05 57.34Z" />
		<path id="Layer" class="shp0" d="M16.89 71.01L24.12 56.85L25.01 57.31L17.78 71.47L16.89 71.01Z" />
		<path id="Layer" class="shp0" d="M29.32 70.99L37.96 56.23L38.82 56.74L30.18 71.49L29.32 70.99Z" />
		<path id="Layer" class="shp0" d="M37.96 56.78L38.81 56.25L48.07 70.98L47.22 71.52L37.96 56.78Z" />
		<path id="Layer" class="shp0" d="M55.97 56.74L56.78 56.15L66.97 70.26L66.16 70.84L55.97 56.74Z" />
		<path id="Layer" class="shp0" d="M48 71.05L55.98 56.26L56.86 56.74L48.88 71.52L48 71.05Z" />
		<path id="Layer" class="shp0" d="M69.06 56.69L69.94 56.22L77.72 71L76.83 71.47L69.06 56.69Z" />
		<path id="Layer" class="shp0" d="M52.31 45.65L52.86 44.82L69.74 56.1L69.19 56.93L52.31 45.65Z" />
		<path id="Layer" class="shp0" d="M52.13 45.37L53.08 45.05L56.88 56.33L55.93 56.65L52.13 45.37Z" />
		<path id="Layer" class="shp0" d="M38.04 56.05L52.29 44.73L52.91 45.51L38.66 56.83L38.04 56.05Z" />
		<path id="Layer" class="shp0" d="M33.36 44.57L34.29 44.22L38.84 56.29L37.9 56.65L33.36 44.57Z" />
		<path id="Layer" class="shp0" d="M24.16 56.85L33.39 44.15L34.2 44.74L24.97 57.44L24.16 56.85Z" />
		<path id="Layer" class="shp0" d="M33.59 43.92L47.45 38.73L47.8 39.67L33.94 44.86L33.59 43.92Z" />
		<path id="Layer" class="shp0" d="M47.46 39.69L47.78 38.74L63.92 44.07L63.61 45.02L47.46 39.69Z" />
		<path id="Layer" class="shp0" d="M95.7 58.7L95.7 58.7C92.4 58.7 89.7 56 89.7 52.7L89.7 43.9C89.7 40.6 92.4 37.9 95.7 37.9L95.7 37.9C99.1 37.8 99.1 58.7 95.7 58.7Z" />
		<path id="Layer" class="shp0" d="M28.6 102.5L18.9 102.5C18.5 102.5 18.2 102.2 18.2 101.8L18.2 101.5L29.6 101.5L29.6 101.5C29.6 102 29.2 102.5 28.6 102.5Z" />
		<path id="Layer" class="shp0" d="M80.4 102.5L70.7 102.5C70.3 102.5 70 102.2 70 101.8L70 101.5L81.4 101.5L81.4 101.5C81.4 102 80.9 102.5 80.4 102.5Z" />
		<path id="Layer" class="shp0" d="M32.2 35.5L43 35.5L43 36.5L32.2 36.5L32.2 35.5Z" />
		<path id="Layer" class="shp0" d="M37.1 37.3L38.1 37.3L38.1 41.4L37.1 41.4L37.1 37.3Z" />
	</g>
</svg>