<?xml version="1.0" encoding="utf-8"?>
<!-- Generator: Adobe Illustrator 25.0.1, SVG Export Plug-In . SVG Version: 6.00 Build 0)  -->
<svg version="1.1" id="Шар_1" xmlns="http://www.w3.org/2000/svg" xmlns:xlink="http://www.w3.org/1999/xlink" x="0px" y="0px"
	 viewBox="0 0 175 165" style="enable-background:new 0 0 175 165;" xml:space="preserve">
<style type="text/css">
	.st0{fill:#FFFFFF;}
</style>
<g>
	<rect x="103.3" y="73.9" transform="matrix(0.9143 -0.405 0.405 0.9143 -24.0574 48.9955)" class="st0" width="1" height="14.9"/>
	<rect x="86.3" y="68.2" transform="matrix(0.726 -0.6877 0.6877 0.726 -25.9051 79.4799)" class="st0" width="1" height="8.1"/>
	<rect x="97.4" y="93.4" transform="matrix(0.2014 -0.9795 0.9795 0.2014 -8.1052 177.7894)" class="st0" width="15.1" height="1"/>
	<path class="st0" d="M116.8,130H57.7c-11.2,0-20.4-9.2-20.4-20.4V50.4c0-11.2,9.2-20.4,20.4-20.4h59.1c11.2,0,20.4,9.2,20.4,20.4
		v59.1C137.2,120.8,128.1,130,116.8,130z M57.7,35c-8.5,0-15.4,6.9-15.4,15.4v59.1c0,8.5,6.9,15.4,15.4,15.4h59.1
		c8.5,0,15.4-6.9,15.4-15.4V50.4c0-8.5-6.9-15.4-15.4-15.4H57.7z"/>
	<path class="st0" d="M105.5,121.7H63.1c-5.2,0-9.5-4.2-9.5-9.5l0,0H115l0,0C115,117.5,110.7,121.7,105.5,121.7z"/>
	<path class="st0" d="M116.2,109.5H52.3c-1.2,0-2.2-1-2.2-2.2l0,0c0-1.2,1-2.2,2.2-2.2h63.9c1.2,0,2.2,1,2.2,2.2l0,0
		C118.4,108.5,117.4,109.5,116.2,109.5z"/>
	<polygon class="st0" points="133.2,48 69.2,48 57.9,44.1 57.9,40.3 117.8,40.3 	"/>
	<polygon class="st0" points="78.2,63.6 71,63.6 71,50.2 81.1,50.2 	"/>
	<rect x="120.6" y="41.8" class="st0" width="14.6" height="5.9"/>
	<rect x="52.6" y="100.7" class="st0" width="63.4" height="1"/>
	<rect x="55.6" y="86.8" class="st0" width="57.4" height="1"/>
	
		<rect x="47.4" y="93.5" transform="matrix(0.1484 -0.9889 0.9889 0.1484 -46.4233 134.0014)" class="st0" width="14.4" height="1"/>
	<rect x="113.5" y="86.4" transform="matrix(0.9906 -0.137 0.137 0.9906 -11.7848 16.5058)" class="st0" width="1" height="14.9"/>
	<rect x="53.2" y="80.3" transform="matrix(0.7637 -0.6455 0.6455 0.7637 -37.2517 59.8936)" class="st0" width="19.9" height="1"/>
	<rect x="106.4" y="72" transform="matrix(0.698 -0.7161 0.7161 0.698 -25.3875 100.8493)" class="st0" width="1" height="17.1"/>
	<rect x="85.3" y="59.5" transform="matrix(5.001730e-03 -1 1 5.001730e-03 10.8595 159.8842)" class="st0" width="1" height="30"/>
	<rect x="63.6" y="86.7" transform="matrix(0.9388 -0.3444 0.3444 0.9388 -28.5145 27.8456)" class="st0" width="1" height="15"/>
	<rect x="50" y="93.7" transform="matrix(0.455 -0.8905 0.8905 0.455 -52.3017 102.9022)" class="st0" width="15.9" height="1"/>
	<rect x="62.5" y="93.4" transform="matrix(0.5056 -0.8628 0.8628 0.5056 -45.8699 107.687)" class="st0" width="17.1" height="1"/>
	<rect x="79.5" y="85.2" transform="matrix(0.8467 -0.5321 0.5321 0.8467 -37.685 56.9465)" class="st0" width="1" height="17.4"/>
	<rect x="98" y="84.8" transform="matrix(0.8106 -0.5856 0.5856 0.8106 -36.129 75.3893)" class="st0" width="1" height="17.4"/>
	<rect x="81" y="93.4" transform="matrix(0.4747 -0.8801 0.8801 0.4747 -35.6484 127.9979)" class="st0" width="16.8" height="1"/>
	<rect x="109.9" y="85.5" transform="matrix(0.885 -0.4656 0.4656 0.885 -31.0109 62.1919)" class="st0" width="1" height="16.7"/>
	
		<rect x="97.5" y="70.7" transform="matrix(0.5554 -0.8316 0.8316 0.5554 -23.6376 117.4687)" class="st0" width="1" height="20.3"/>
	<rect x="91" y="74.9" transform="matrix(0.9476 -0.3195 0.3195 0.9476 -21.0344 33.4679)" class="st0" width="1" height="11.9"/>
	<rect x="73.4" y="80.3" transform="matrix(0.7831 -0.622 0.622 0.7831 -32.39 68.8224)" class="st0" width="18.2" height="1"/>
	<rect x="72.6" y="74" transform="matrix(0.9358 -0.3525 0.3525 0.9358 -23.6678 30.9163)" class="st0" width="1" height="12.9"/>
	<rect x="58.3" y="80.3" transform="matrix(0.5881 -0.8088 0.8088 0.5881 -38.0713 86.7803)" class="st0" width="15.7" height="1"/>
	<rect x="70.3" y="71.3" transform="matrix(0.9365 -0.3506 0.3506 0.9365 -20.2478 31.7983)" class="st0" width="14.8" height="1"/>
	<rect x="92.2" y="63.4" transform="matrix(0.3134 -0.9496 0.9496 0.3134 -4.6366 137.3772)" class="st0" width="1" height="17"/>
	<path class="st0" d="M132.7,88.7L132.7,88.7c-3.3,0-6-2.7-6-6v-8.8c0-3.3,2.7-6,6-6l0,0C136.1,67.8,136.1,88.7,132.7,88.7z"/>
	<path class="st0" d="M65.6,132.5h-9.7c-0.4,0-0.7-0.3-0.7-0.7v-0.3h11.4l0,0C66.6,132,66.2,132.5,65.6,132.5z"/>
	<path class="st0" d="M117.4,132.5h-9.7c-0.4,0-0.7-0.3-0.7-0.7v-0.3h11.4l0,0C118.4,132,117.9,132.5,117.4,132.5z"/>
	<rect x="69.2" y="65.5" class="st0" width="10.8" height="1"/>
	<rect x="74.1" y="67.3" class="st0" width="1" height="4.1"/>
</g>
</svg>
