<svg xmlns="http://www.w3.org/2000/svg" viewBox="0 0 133 129" width="133" height="129">
	<style>
		tspan { white-space:pre }
		.shp0 { fill: #0f4c5c } 
	</style>
	<path id="Layer" fill-rule="evenodd" class="shp0" d="M49.8 88.4L47.1 96.2L112 95.8C114.7 95.8 117 98 117 100.8C117 103.5 114.8 105.8 112 105.8L108.4 105.8C110.9 108.2 112.5 111.5 112.5 115.2C112.5 122.4 106.4 128.3 98.9 128.3C91.4 128.3 85.3 122.4 85.3 115.2C85.3 111.5 86.8 108.3 89.3 105.9L63 106.1C65.3 108.5 66.8 111.7 66.8 115.2C66.8 122.4 60.7 128.3 53.2 128.3C45.7 128.3 39.6 122.4 39.6 115.2C39.6 111.8 41 108.6 43.3 106.3L39.8 106.3C38.2 106.3 36.6 105.5 35.7 104.2C34.7 102.8 34.5 101.1 35 99.6L38.9 88.4C36.9 88.1 35.2 86.5 34.8 84.4L22.8 18.4L3.2 10.3C0.7 9.3 -0.6 6.3 0.5 3.8C1.5 1.3 4.5 0.1 7 1.1L29.1 10.3C30.7 10.9 31.8 12.3 32.1 14L43.8 78.4L45.9 78.4L105.2 78L121 33.8L46.9 33.4C44.1 33.4 41.9 31.2 41.9 28.4C41.9 25.6 44.1 23.4 46.9 23.4L128 23.9C129.7 23.9 131.2 24.7 132.1 26C133 27.3 133.2 29 132.7 30.5L113.5 84.7C112.8 86.6 110.9 88 108.8 88L49.8 88.4ZM106.3 115.2C106.3 111.3 102.9 108.1 98.7 108.1C94.5 108.1 91.1 111.3 91.1 115.2C91.1 119.1 94.5 122.3 98.7 122.3C102.8 122.3 106.2 119.1 106.3 115.2ZM45.5 115.2C45.5 119.1 48.9 122.3 53.1 122.3C57.3 122.3 60.7 119.1 60.7 115.2C60.7 111.3 57.3 108.1 53.1 108.1C48.9 108.1 45.5 111.3 45.5 115.2Z" />
</svg>