<svg xmlns="http://www.w3.org/2000/svg" viewBox="0 0 89 105" width="89" height="105">
	<style>
		tspan { white-space:pre }
		.shp0 { fill: #ffffff } 
	</style>
	<g id="Layer">
		<g id="Layer">
			<g id="Layer">
				<path id="Layer" class="shp0" d="M81.8 30.5C79.3 30.8 77.3 32.5 76.1 34.7C75.9 35.2 72.4 45 72.4 45L19.4 45L19.4 45L16.7 45C16.7 45 12.7 34.9 12.5 34.4C11.4 32.1 9.3 30.5 6.8 30.2L10 8.3L10.1 8.3C10.6 4.7 13.1 1.8 16.6 0.8C16.7 0.8 16.8 0.8 16.9 0.7C17.5 0.5 18.1 0.7 18.1 0.7C23.5 2.5 38 3.8 44.7 3.8C51.3 3.8 57.4 3.6 62.7 1.8C62.7 1.8 65.4 0.9 67.8 0.6C69.4 0.4 71 0.5 71.7 0.5L71.7 0.5L71.7 0.5L71.8 0.5L72.1 0.5L72.1 0.5L72.1 0.5C75.3 1.4 77.8 4 78.5 7.3C78.5 7.3 78.5 7.3 78.5 7.4L78.5 7.5C78.5 7.6 78.5 7.7 78.5 7.8L81.8 30.5Z" />
				<path id="Layer" class="shp0" d="M88.2 40.3L88.2 40.3L86.6 45.8C86.6 45.8 85.2 50.7 85.2 50.8C85 51.4 84.5 52.5 83.5 53.6C82.1 55.2 80.1 56.2 78.3 56.9C76.1 57.7 73.9 58.3 72.9 58.3L71.9 58.3L70.5 58.3L76.8 100.6C77 102.3 75.9 103.8 74.2 104.1L72.6 104.3C70.9 104.5 69.4 103.4 69.1 101.7L62.6 58.2L27.3 58.2L20.8 101.7C20.6 103.3 19 104.5 17.3 104.3L15.7 104.1C14.1 103.9 12.9 102.3 13.1 100.6L19.4 58.3L16 58.3L16.1 58.3L16.1 58.3L16.1 58.3L16 58.3L15.9 58.3L16 58.3C15.9 58.3 15.8 58.3 15.6 58.3C14.5 58.2 12.6 57.7 10.6 56.9C8.8 56.2 6.8 55.1 5.4 53.5C4.4 52.4 4 51.3 3.7 50.7C3.7 50.6 3.7 50.5 3.7 50.5L3.7 50.4L3.7 50.4L0.7 40.3L0.7 40.3C0.7 40.1 0.6 39.9 0.6 39.8C0.4 37.3 2.3 35.1 5 34.9C7.6 34.6 9.9 36.3 10.3 38.7L10.3 38.7L11.2 41.9L11.5 42.9C12.1 44.5 13.2 47 13.2 47.2C13.3 48 14.4 49 15.3 49.2L71.8 49.2L71.8 49.2L73.5 49.2C74.4 49 75.5 48 75.6 47.2C75.6 47 76.7 44.5 77.3 42.9L77.6 41.9L78.5 38.7L78.5 38.7C78.8 36.3 81.2 34.6 83.8 34.9C84 34.9 84.1 34.9 84.3 35C86.7 35.5 88.4 37.6 88.2 39.9C88.3 40 88.3 40.1 88.2 40.3Z" />
			</g>
		</g>
	</g>
</svg>