<?xml version="1.0" encoding="utf-8"?>
<!-- Generator: Adobe Illustrator 25.0.1, SVG Export Plug-In . SVG Version: 6.00 Build 0)  -->
<svg version="1.1" id="Шар_1" xmlns="http://www.w3.org/2000/svg" xmlns:xlink="http://www.w3.org/1999/xlink" x="0px" y="0px"
	 viewBox="0 0 175 165" style="enable-background:new 0 0 175 165;" xml:space="preserve">
<style type="text/css">
	.st0{fill:#FFFFFF;}
</style>
<g>
	<g>
		<g>
			<path class="st0" d="M124.8,60.5c-2.5,0.3-4.5,2-5.7,4.2c-0.2,0.5-3.7,10.3-3.7,10.3h-53l0,0h-2.7c0,0-4-10.1-4.2-10.6
				c-1.1-2.3-3.2-3.9-5.7-4.2l3.2-21.9l0.1,0c0.5-3.6,3-6.5,6.5-7.5c0.1,0,0.2,0,0.3-0.1c0.6-0.2,1.2,0,1.2,0
				c5.4,1.8,19.9,3.1,26.6,3.1c6.6,0,12.7-0.2,18-2c0,0,2.7-0.9,5.1-1.2c1.6-0.2,3.2-0.1,3.9-0.1h0l0,0l0.1,0l0.3,0l0,0c0,0,0,0,0,0
				c3.2,0.9,5.7,3.5,6.4,6.8c0,0,0,0,0,0.1c0,0,0,0.1,0,0.1c0,0.1,0,0.2,0,0.3L124.8,60.5z"/>
			<path class="st0" d="M131.2,70.3L131.2,70.3l-1.6,5.5c0,0-1.4,4.9-1.4,5c-0.2,0.6-0.7,1.7-1.7,2.8c-1.4,1.6-3.4,2.6-5.2,3.3
				c-2.2,0.8-4.4,1.4-5.4,1.4l-1,0h-1.4l6.3,42.3c0.2,1.7-0.9,3.2-2.6,3.5l-1.6,0.2c-1.7,0.2-3.2-0.9-3.5-2.6l-6.5-43.5H70.3
				l-6.5,43.5c-0.2,1.6-1.8,2.8-3.5,2.6l-1.6-0.2c-1.6-0.2-2.8-1.8-2.6-3.5l6.3-42.3h-3.4c0,0,0.1,0,0.1,0c0,0,0,0,0,0h0
				c0,0-0.1,0-0.1,0l-0.1,0H59c-0.1,0-0.2,0-0.4,0c-1.1-0.1-3-0.6-5-1.4c-1.8-0.7-3.8-1.8-5.2-3.4c-1-1.1-1.4-2.2-1.7-2.8
				c0-0.1,0-0.2,0-0.2l0-0.1v0l-3-10.1h0c0-0.2-0.1-0.4-0.1-0.5c-0.2-2.5,1.7-4.7,4.4-4.9c2.6-0.3,4.9,1.4,5.3,3.8l0,0l0.9,3.2
				l0.3,1c0.6,1.6,1.7,4.1,1.7,4.3c0.1,0.8,1.2,1.8,2.1,2h56.5v0l1.7,0c0.9-0.2,2-1.2,2.1-2c0-0.2,1.1-2.7,1.7-4.3l0.3-1l0.9-3.2
				l0,0c0.3-2.4,2.7-4.1,5.3-3.8c0.2,0,0.3,0,0.5,0.1c2.4,0.5,4.1,2.6,3.9,4.9C131.3,70,131.3,70.1,131.2,70.3z"/>
		</g>
	</g>
</g>
</svg>
