<?xml version="1.0" encoding="utf-8"?>
<!-- Generator: Adobe Illustrator 24.2.3, SVG Export Plug-In . SVG Version: 6.00 Build 0)  -->
<svg version="1.1" id="Шар_1" xmlns="http://www.w3.org/2000/svg" xmlns:xlink="http://www.w3.org/1999/xlink" x="0px" y="0px"
	 viewBox="0 0 175 165" style="enable-background:new 0 0 175 165;" xml:space="preserve">
<style type="text/css">
	.st0{fill:#555555;}
	.st1{fill:none;}
	.st2{fill:#FFFFFF;}
</style>
<rect x="0.21" class="st0" width="174.58" height="165"/>
<line class="st1" x1="130.97" y1="67.72" x2="127.21" y2="49.06"/>
<g>
	<path class="st2" d="M124.78,45.67c-2.45,0.34-4.54,1.96-5.68,4.23c-0.24,0.47-3.74,10.27-3.74,10.27h-3.05l-4.97-34.35l13.96-3.03
		L124.78,45.67z"/>
	<g>
		<path class="st2" d="M114.92,16.02v44.15H60.06L59.7,16.09l0.36-0.02c0.08,0.05,0.11-0.07,0.19-0.03
			c-0.17,0.03-0.02-0.01-0.19,0.03c2.59,1.35,5.26,2.39,8.68,3.3c5.32,1.53,11.7,2.42,18.56,2.42c9.37,0,17.85-1.66,23.95-4.34
			c1.17-0.47,2.27-0.98,3.3-1.51c-0.07-0.02-0.17,0.06-0.24,0.05c0.1-0.06,0.09,0.01,0.19-0.05L114.92,16.02z"/>
		<path class="st2" d="M70.63,24.6c0,4.91-3.98,8.89-8.89,8.89c-0.81,0-1.59-0.11-2.33-0.31c-3.78-1.02-6.56-4.48-6.56-8.58
			c0-4.1,2.78-7.56,6.56-8.58c0.09-0.02,0.17-0.05,0.26-0.07c2.65,1.37,5.78,2.55,9.29,3.46C70.01,20.88,70.63,22.67,70.63,24.6z"/>
		<path class="st2" d="M49.7,45.38c2.45,0.34,4.54,1.96,5.68,4.23c0.24,0.47,4.23,10.6,4.23,10.6h2.72l4.82-34.68l-14.28-2.07
			L49.7,45.38z"/>
		<path class="st2" d="M103.7,24.59c0,4.91,3.98,8.89,8.89,8.89c0.81,0,1.59-0.11,2.33-0.31c3.78-1.02,6.56-4.48,6.56-8.58
			c0-4.1-2.78-7.56-6.56-8.58c-0.09-0.02-0.17-0.05-0.26-0.07c-2.65,1.37-5.78,2.55-9.29,3.46C104.32,20.87,103.7,22.66,103.7,24.59
			z"/>
		<path class="st2" d="M63.34,17.91c6.11,3.45,14.58,5.59,23.95,5.59c6.86,0,23.91-2.6,27.63-7.54c-0.02,0.03-2.25-0.23-4.35,0.03
			c-2.43,0.3-5.06,1.15-5.1,1.16c-5.34,1.8-11.45,1.95-18.04,1.95c-6.68,0-21.21-1.3-26.59-3.14l-0.36,0.06
			C58.38,15.3,65.13,18.84,63.34,17.91z"/>
		<ellipse transform="matrix(0.995 -0.0999 0.0999 0.995 -5.2016 5.1209)" class="st2" cx="48.52" cy="54.49" rx="4.86" ry="4.48"/>
		<polygon class="st2" points="56.23,63.6 46.88,66.09 46.75,65.65 46.75,65.64 43.74,55.5 43.78,55.5 53.09,53.01 53.33,53.82 
			54.28,57.03 		"/>
		<path class="st2" d="M59.47,73.15c0.1,0.02,0.16,0.02,0.17,0.02C59.61,73.16,59.54,73.15,59.47,73.15z M58.14,64.36
			c-0.04-0.07,0.49,0.2,0.46,0.15c-0.1-0.18-0.19-0.11-0.18-0.14c-0.92-0.21-2.04-1.2-2.13-2.03c-0.02-0.18-1.43-3.55-1.98-4.99
			c-4.69,1.83-7.77,5.14-7.53,8.62c0.24,0.61,0.72,1.7,1.69,2.79c1.41,1.6,3.35,2.65,5.17,3.35c2.22,0.84,4.42,1.43,5.38,1.4
			c0.02,0.01,0.03,0.01,0.06,0c0.03,0,0.07,0,0.1-0.01c0.17-0.02,0.12-0.29,0.17-0.36C59.84,68.3,58.65,65.42,58.14,64.36z
			 M84.44,64.61l-26.3-0.25H58.1l0.92,9.14v0.01l0.06-0.01c0.03,0,0.07,0,0.1-0.01l5.58-0.56c6.27-1.49,20.14-3.94,19.72-8.11
			C84.46,64.6,84.48,64.81,84.44,64.61z"/>
		
			<rect x="82.18" y="40.77" transform="matrix(6.123234e-17 -1 1 6.123234e-17 17.8293 155.6888)" class="st2" width="9.15" height="56.33"/>
		
			<ellipse transform="matrix(0.0999 -0.995 0.995 0.0999 59.587 174.9217)" class="st2" cx="126.48" cy="54.53" rx="4.48" ry="4.86"/>
		<polygon class="st2" points="118.77,63.64 128.12,66.13 128.25,65.68 128.25,65.68 131.26,55.54 131.22,55.53 121.91,53.05 
			121.67,53.86 120.72,57.06 		"/>
		<path class="st2" d="M115.36,73.21c0.02,0,0.07-0.01,0.17-0.02C115.46,73.18,115.39,73.2,115.36,73.21z M115.65,73.17
			c0.06,0.06,0,0.33,0.17,0.36c0.03,0.01,0.07,0.01,0.1,0.01c0.02,0.01,0.04,0.01,0.06,0c0.96,0.03,3.16-0.56,5.38-1.4
			c1.82-0.7,3.76-1.75,5.17-3.35c0.97-1.09,1.45-2.18,1.69-2.79c0.24-3.48-2.84-6.79-7.53-8.62c-0.55,1.44-1.96,4.81-1.98,4.99
			c-0.09,0.83-1.21,1.82-2.13,2.03c0.01,0.03-0.08-0.04-0.18,0.14c-0.02,0.06,0.5-0.22,0.46-0.15
			C116.35,65.46,115.16,68.34,115.65,73.17z M90.52,64.85c-0.42,4.17,13.46,6.62,19.72,8.11l5.58,0.56c0.03,0.01,0.07,0.01,0.1,0.01
			l0.06,0.01v-0.01l0.92-9.14h-0.04l-26.3,0.25C90.52,64.85,90.54,64.64,90.52,64.85z"/>
		<path class="st2" d="M60.32,119.54l-1.58-0.24c-1.65-0.25-2.81-1.8-2.56-3.46l6.61-44.37c0.25-1.65,1.8-2.81,3.46-2.56l1.58,0.24
			c1.65,0.25,2.81,1.8,2.56,3.46l-6.61,44.37C63.53,118.63,61.97,119.78,60.32,119.54z"/>
		<path class="st2" d="M115.71,119.54l1.58-0.24c1.65-0.25,2.81-1.8,2.56-3.46l-6.61-44.37c-0.25-1.65-1.8-2.81-3.46-2.56
			l-1.58,0.24c-1.65,0.25-2.81,1.8-2.56,3.46l6.61,44.37C112.5,118.63,114.06,119.78,115.71,119.54z"/>
	</g>
</g>
</svg>
