<svg xmlns="http://www.w3.org/2000/svg" viewBox="0 0 115 115" width="115" height="115">
	<style>
		tspan { white-space:pre }
		.shp0 { fill: #000000 } 
	</style>
	<g id="Layer">
		<path id="Layer" fill-rule="evenodd" class="shp0" d="M57.5 114.7C26 114.7 0.3 89 0.3 57.5C0.3 26 26 0.3 57.5 0.3C89 0.3 114.7 26 114.7 57.5C114.7 89 89 114.7 57.5 114.7ZM57.5 12.7C32.8 12.7 12.7 32.8 12.7 57.5C12.7 82.2 32.8 102.3 57.5 102.3C82.2 102.3 102.3 82.2 102.3 57.5C102.3 32.8 82.2 12.7 57.5 12.7Z" />
		<path id="Layer" class="shp0" d="M57.4 74.8C56.5 74.8 55.5 74.6 54.6 74.1C52.5 73 51.1 70.9 51.2 68.5L51.5 20.5C51.5 17.1 54.3 14.3 57.7 14.3L57.7 14.3C61.1 14.3 63.9 17.1 63.9 20.5L63.7 56L80.2 43.4C82.9 41.3 86.8 41.8 88.9 44.6C91 47.3 90.5 51.2 87.7 53.3L61.2 73.5C60.1 74.4 58.8 74.8 57.4 74.8Z" />
	</g>
</svg>