<svg xmlns="http://www.w3.org/2000/svg" viewBox="0 0 115 111" width="115" height="111">
	<style>
		tspan { white-space:pre }
		.shp0 { fill: #000000 } 
	</style>
	<g id="Layer">
		<path id="Layer" fill-rule="evenodd" class="shp0" d="M115.1 25.3L115.1 96C115.1 103.9 108.6 110.4 100.7 110.4L14.6 110.4C6.7 110.4 0.2 103.9 0.2 96L0.2 25.3C0.2 17.4 6.7 10.9 14.6 10.9L20.4 10.9C19.9 12 19.7 13.2 19.7 14.4C19.7 19.7 24 24 29.3 24C34.6 24 38.9 19.7 38.9 14.4C38.9 13.2 38.6 12 38.2 10.9L77.2 10.9C76.7 12 76.5 13.2 76.5 14.4C76.5 19.7 80.8 24 86.1 24C91.4 24 95.7 19.7 95.7 14.4C95.7 13.2 95.4 12 95 10.9L100.6 10.9C108.5 10.9 114.9 17.4 115.1 25.3ZM103.8 44.9L9.3 44.9L9.3 99L103.8 99L103.8 44.9Z" />
		<path id="Layer" class="shp0" d="M24 0.6L34 0.6L34 20.1L24 20.1L24 0.6Z" />
		<path id="Layer" class="shp0" d="M81.4 0.6L91.4 0.6L91.4 20.1L81.4 20.1L81.4 0.6Z" />
		<path id="Layer" class="shp0" d="M15.4 64.4L29.9 64.4L29.9 73.9L15.4 73.9L15.4 64.4Z" />
		<path id="Layer" class="shp0" d="M15.4 79.5L29.9 79.5L29.9 89L15.4 89L15.4 79.5Z" />
		<path id="Layer" class="shp0" d="M39.4 79.5L53.9 79.5L53.9 89L39.4 89L39.4 79.5Z" />
		<path id="Layer" class="shp0" d="M61.7 79.5L76.2 79.5L76.2 89L61.7 89L61.7 79.5Z" />
		<path id="Layer" class="shp0" d="M84.3 79.5L98.8 79.5L98.8 89L84.3 89L84.3 79.5Z" />
		<path id="Layer" class="shp0" d="M39.4 64.7L53.9 64.7L53.9 74.2L39.4 74.2L39.4 64.7Z" />
		<path id="Layer" class="shp0" d="M61.7 64.7L76.2 64.7L76.2 74.2L61.7 74.2L61.7 64.7Z" />
		<path id="Layer" class="shp0" d="M84.3 64.7L98.8 64.7L98.8 74.2L84.3 74.2L84.3 64.7Z" />
		<path id="Layer" class="shp0" d="M39.4 49.9L53.9 49.9L53.9 59.4L39.4 59.4L39.4 49.9Z" />
		<path id="Layer" class="shp0" d="M61.7 49.9L76.2 49.9L76.2 59.4L61.7 59.4L61.7 49.9Z" />
		<path id="Layer" class="shp0" d="M84.3 49.9L98.8 49.9L98.8 59.4L84.3 59.4L84.3 49.9Z" />
	</g>
</svg>