<svg xmlns="http://www.w3.org/2000/svg" viewBox="0 0 123 125" width="123" height="125">
	<style>
		tspan { white-space:pre }
		.shp0 { fill: #000000 } 
	</style>
	<path id="Layer" class="shp0" d="M123.1 26.3L123.1 98.7C123.1 113 111.4 124.8 97 124.8L71.9 124.8L71.9 82.7L87.5 82.7L87.5 62.7L71.9 62.7L71.9 51.8L71.9 51.8C71.8 48.4 72.1 45 73.8 45C75.5 45 89.6 44.9 89.6 44.9L89.6 26.1C89.6 26.1 76.6 26.2 65 26.4C53.4 26.6 50.7 41.4 50.7 41.4L50.8 51.8L50.8 62.7L35.1 62.7L35.1 82.6L50.7 82.6L50.7 124.7L26 124.7C11.7 124.7 -0.1 113 -0.1 98.6L-0.1 26.3C-0.1 12 11.6 0.2 26 0.2L97 0.2C111.3 0.2 123.1 11.9 123.1 26.3Z" />
</svg>