<svg xmlns="http://www.w3.org/2000/svg" viewBox="0 0 139 137" width="139" height="137">
	<style>
		tspan { white-space:pre }
		.shp0 { fill: #000000 } 
	</style>
	<g id="Layer">
		<path id="Layer" class="shp0" d="M69.9 81.2C62.93 81.2 57.3 75.79 57.3 69.1C57.3 62.41 62.93 57 69.9 57C76.87 57 82.5 62.41 82.5 69.1C82.5 75.79 76.87 81.2 69.9 81.2Z" />
		<path id="Layer" fill-rule="evenodd" class="shp0" d="M104.4 53.1L104.4 85.7C104.4 95.8 96.2 103.9 86.2 103.9L52.6 103.9C42.5 103.9 34.4 95.7 34.4 85.7L34.4 53.1C34.4 43 42.6 34.9 52.6 34.9L86.1 34.9C96.2 34.9 104.3 43 104.4 53.1ZM91.4 70.1C91.4 58.5 81.8 49 69.9 49C58 49 48.4 58.5 48.4 70.1C48.4 81.7 58 91.2 69.9 91.2C81.7 91.2 91.4 81.7 91.4 70.1ZM96.3 48.3C96.3 45.8 94.3 43.8 91.8 43.8C89.3 43.8 87.3 45.8 87.3 48.3C87.3 50.8 89.3 52.8 91.8 52.8C94.3 52.8 96.3 50.8 96.3 48.3Z" />
		<path id="Layer" fill-rule="evenodd" class="shp0" d="M138.7 33.1L138.7 104.8C138.7 122.5 124.2 137 106.5 137L33.1 137C15.4 137 0.9 122.5 0.9 104.8L0.9 33.1C0.9 15.4 15.4 0.9 33.1 0.9L106.5 0.9C124.2 0.9 138.6 15.4 138.7 33.1ZM113.4 84.6L113.4 52.1C113.4 37.1 101.2 24.9 86.2 24.9L52.6 24.9C37.6 24.9 25.4 37.1 25.4 52.1L25.4 84.6C25.4 99.6 37.6 111.8 52.6 111.8L86.1 111.8C101.1 111.8 113.3 99.6 113.3 84.6L113.4 84.6Z" />
	</g>
</svg>