<svg xmlns="http://www.w3.org/2000/svg" viewBox="0 0 139 136" width="139" height="136">
	<style>
		tspan { white-space:pre }
		.shp0 { fill: #000000 } 
	</style>
	<g id="Layer">
		<path id="Layer" class="shp0" d="M69.9 80.2C62.93 80.2 57.3 74.79 57.3 68.1C57.3 61.41 62.93 56 69.9 56C76.87 56 82.5 61.41 82.5 68.1C82.5 74.79 76.87 80.2 69.9 80.2Z" />
		<path id="Layer" fill-rule="evenodd" class="shp0" d="M104.4 51.1L104.4 83.7C104.4 93.8 96.2 101.9 86.2 101.9L52.6 101.9C42.5 101.9 34.4 93.7 34.4 83.7L34.4 51.1C34.4 41 42.6 32.9 52.6 32.9L86.1 32.9C96.2 32.9 104.3 41 104.4 51.1ZM91.4 68.1C91.4 56.5 81.8 47 69.9 47C58 47 48.4 56.5 48.4 68.1C48.4 79.7 58 89.2 69.9 89.2C81.7 89.2 91.4 79.7 91.4 68.1ZM96.3 46.3C96.3 43.8 94.3 41.8 91.8 41.8C89.3 41.8 87.3 43.8 87.3 46.3C87.3 48.8 89.3 50.8 91.8 50.8C94.3 50.8 96.3 48.8 96.3 46.3Z" />
		<path id="Layer" fill-rule="evenodd" class="shp0" d="M138.7 32.1L138.7 103.8C138.7 121.5 124.2 136 106.5 136L33.1 136C15.4 136 0.9 121.5 0.9 103.8L0.9 32.1C0.9 14.4 15.4 -0.1 33.1 -0.1L106.5 -0.1C124.2 -0.1 138.6 14.4 138.7 32.1ZM113.4 83.6L113.4 51.1C113.4 36.1 101.2 23.9 86.2 23.9L52.6 23.9C37.6 23.9 25.4 36.1 25.4 51.1L25.4 83.6C25.4 98.6 37.6 110.8 52.6 110.8L86.1 110.8C101.1 110.8 113.3 98.6 113.3 83.6L113.4 83.6Z" />
	</g>
</svg>