<?xml version="1.0" encoding="utf-8"?>
<!-- Generator: Adobe Illustrator 24.2.3, SVG Export Plug-In . SVG Version: 6.00 Build 0)  -->
<svg version="1.1" id="Шар_1" xmlns="http://www.w3.org/2000/svg" xmlns:xlink="http://www.w3.org/1999/xlink" x="0px" y="0px"
	 viewBox="0 0 105.7 73.3" style="enable-background:new 0 0 105.7 73.3;" xml:space="preserve">
<style>
	.st0{fill:none;}
	.st1{fill:#FFFFFF;}
</style>
<g>
	<path d="M8.7,63v-4.5l-1.8,3.8H6l-1.8-3.8V63H2.8v-6.8h1.7l1.9,4.1l1.9-4.1h1.7V63H8.7z"/>
	<path d="M17.5,60.3c0,1.8-1.2,2.9-3,2.9c-1.9,0-3.1-1.1-3.1-2.9v-3.9H13v3.9c0,1,0.6,1.5,1.5,1.5s1.4-0.6,1.4-1.5v-3.9h1.6V60.3z"
		/>
	<path d="M23.9,57l-0.6,1.3c-0.7-0.4-1.5-0.7-2.1-0.7c-0.5,0-0.9,0.2-0.9,0.5c0,1.2,3.6,0.5,3.6,3c0,1.3-1.1,2-2.6,2
		c-1.1,0-2.1-0.4-3-1.1l0.6-1.2c0.7,0.6,1.7,1,2.4,1c0.6,0,1-0.2,1-0.6c0-1.3-3.6-0.5-3.6-2.9c0-1.2,1-2,2.6-2
		C22.2,56.3,23.1,56.5,23.9,57z"/>
	<path d="M25,63v-6.8h1.6V63H25z"/>
	<path d="M30.5,60.2l-1,1.1V63h-1.6v-6.8h1.6v3.1l2.9-3.1h1.8L31.6,59l2.8,3.9h-1.9L30.5,60.2z"/>
	<path d="M37.5,60.2l-1,1.1V63h-1.6v-6.8h1.6v3.1l2.9-3.1h1.8L38.6,59l2.8,3.9h-1.9L37.5,60.2z"/>
	<path d="M45.2,56.2c1.5,0,2.4,0.6,2.4,1.7c0,0.7-0.5,1.3-1.2,1.5c0.8,0.1,1.4,0.9,1.4,1.7c0,1.2-1,1.9-2.6,1.9h-3.2v-6.8H45.2z
		 M43.5,58.9h1.4c0.5,0,0.9-0.3,0.9-0.7s-0.3-0.7-0.9-0.7h-1.4V58.9z M43.5,61.8H45c0.7,0,1.1-0.3,1.1-0.8s-0.4-0.8-1.1-0.8h-1.5
		V61.8z"/>
	<path d="M51.9,61.2h-1.5V63h-1.6v-6.8h3c1.8,0,2.9,0.9,2.9,2.4c0,1-0.5,1.8-1.3,2.2L55,63h-2.1L51.9,61.2z M51.6,59.8
		c0.8,0,1.3-0.4,1.3-1.1c0-0.8-0.5-1.1-1.3-1.1h-1.4v2.3H51.6z"/>
	<path d="M59.1,63h-1.6v-2.1l-2.6-4.6h1.6l1.8,3l1.8-3h1.6l-2.5,4.6V63z"/>
	<path d="M67.6,59.6v2.6c-0.8,0.6-1.8,0.9-2.8,0.9c-2.1,0-3.7-1.5-3.7-3.4s1.6-3.4,3.8-3.4c1,0,2,0.3,2.8,1l-0.9,1.1
		c-0.5-0.5-1.2-0.7-1.9-0.7c-1.2,0-2.1,0.9-2.2,2c0,1.2,0.9,2.1,2,2.2c0,0,0.1,0,0.1,0c0.5,0,0.9-0.1,1.4-0.4v-1.8H67.6z"/>
	<path d="M74.9,59.6v2.6C74,62.7,73.1,63,72.1,63c-2.1,0-3.7-1.5-3.7-3.4s1.6-3.4,3.8-3.4c1,0,2,0.3,2.8,1L74,58.3
		c-0.5-0.5-1.2-0.7-1.9-0.7c-1.2,0-2.1,0.9-2.2,2c0,1.2,0.9,2.1,2,2.2c0,0,0.1,0,0.1,0c0.5,0,0.9-0.1,1.4-0.4v-1.8H74.9z"/>
	<path d="M77.6,57.5v1.4h3.2v1.4h-3.2v1.6h3.6V63h-5v-6.8h5v1.4H77.6z"/>
	<path d="M85.6,61.2h-1.5V63h-1.6v-6.8h3c1.8,0,2.9,0.9,2.9,2.4c0,1-0.5,1.8-1.3,2.2l1.5,2.2h-2.1L85.6,61.2z M85.3,59.8
		c0.8,0,1.3-0.4,1.3-1.1c0-0.8-0.5-1.1-1.3-1.1h-1.4v2.3H85.3z"/>
	<path d="M89.3,63v-6.8h1.6V63H89.3z"/>
	<path d="M94.1,57.5v1.4h3.2v1.4h-3.2v1.6h3.6V63h-5.2v-6.8h5v1.4H94.1z"/>
	<path d="M101.7,57.5V63h-1.6v-5.4h-2v-1.4h5.6v1.4H101.7z"/>
</g>
<path class="st0" d="M44,43.7c-0.6,0.3-1-0.9-1-0.9V29.1h-4.3v23.2h5.9v-8.6H44z"/>
<path class="st0" d="M34.4,29.1v13.7c0,0-0.8,1.1-1.4,0.9h-0.8v8.6h5.9V29.1H34.4z"/>
<path class="st0" d="M31.2,43.7c-0.6,0-1.1-0.5-1.1-1.1V29.1h-4.3v13.5c0,0.6-0.5,1.1-1.1,1.1h-1v8.6h8.1v-8.6H31.2z"/>
<path class="st0" d="M63.6,29.1v13.7c0,0-0.2,1.1-0.8,0.9H62v8.6h5.4V29.1H63.6z"/>
<path class="st0" d="M73.4,43.7c-0.6,0.3-1.1-0.9-1.1-0.9V29.1h-4.3v23.2h5.9v-8.6H73.4z"/>
<path class="st0" d="M52.8,43.7c-0.6,0-1.1-0.5-1.1-1.1V29.1h-4.3v13.5c0,0.6-0.5,1.1-1.1,1.1h-1v8.6h8.1v-8.6H52.8z"/>
<path class="st0" d="M85.2,42.5c0,0.6-0.5,1.1-1.1,1.1h-1v8.6h2.1c0.9,0,1.7-0.7,1.7-1.7V29.1h-1.6V42.5z"/>
<path class="st0" d="M60.9,43.7c-0.6,0-1.1-0.5-1.1-1.1V29.1H56v13.5c0,0.6-0.5,1.1-1.1,1.1h-1v8.6h7.6v-8.6H60.9z"/>
<path class="st0" d="M22.4,43.7c-0.6,0.3-1-0.9-1-0.9V29.1h-2.2v21.6c0,0.9,0.7,1.7,1.7,1.7H23v-8.6H22.4z"/>
<path class="st0" d="M82,43.7c-0.6,0-1.1-0.5-1.1-1.1V29.1h-4.3v13.5c0,0.6-0.5,1.1-1.1,1.1h-1v8.6h8.1v-8.6H82z"/>
<path d="M18.2,28.5v22.4c0,1.7,1.3,3,3,3h64.2c1.7,0,3-1.3,3-3V28.5H18.2z M23,52.3h-2.1c-0.9,0-1.7-0.7-1.7-1.7V29.1h2.2v13.5
	c0,0.6,0.5,1.1,1.1,1.1H23V52.3z M31.7,52.3h-8.1v-8.7h1c0.6,0,1.1-0.5,1.1-1.1V29.1h4.3v13.5c0,0.6,0.5,1.1,1.1,1.1h0.5V52.3z
	 M38.2,52.3h-5.9v-8.7h1c0.6,0,1.1-0.5,1.1-1.1V29.1h3.8V52.3z M44.7,52.3h-5.9V29.1H43v13.5c0,0.6,0.5,1.1,1.1,1.1h0.5V52.3z
	 M53.3,52.3h-8.1v-8.7h1c0.6,0,1.1-0.5,1.1-1.1V29.1h4.3v13.5c0,0.6,0.5,1.1,1.1,1.1h0.5V52.3z M61.4,52.3h-7.6v-8.7h1
	c0.6,0,1.1-0.5,1.1-1.1V29.1h3.8v13.5c0,0.6,0.5,1.1,1.1,1.1h0.5V52.3z M67.4,52.3H62v-8.7h1c0.6,0,1.1-0.5,1.1-1.1V29.1h3.2V52.3z
	 M73.8,52.3h-5.9V29.1h4.3v13.5c0,0.6,0.5,1.1,1.1,1.1h0.5V52.3z M74.4,52.3v-8.7h1c0.6,0,1.1-0.5,1.1-1.1V29.1h4.3v13.5
	c0,0.6,0.5,1.1,1.1,1.1h0.5v8.7H74.4z M86.8,50.7c0,0.9-0.7,1.7-1.7,1.7H83v-8.7h1c0.6,0,1.1-0.5,1.1-1.1V29.1h1.6V50.7z"/>
<rect x="38.2" y="29.1" class="st1" width="0.5" height="0.5"/>
<rect x="67.4" y="29.1" class="st1" width="0.5" height="0.5"/>
<rect x="21.4" y="21.5" width="2.7" height="6.5"/>
<polygon points="27.4,15 24.7,15 24.7,20.9 24.7,28 27.4,28 "/>
<polygon points="31.1,16.1 31.1,9.1 28.4,9.1 28.4,14.2 28.4,27.5 31.1,27.5 "/>
<polygon points="34.4,18.3 34.4,16.6 31.7,16.6 31.7,27.5 34.4,27.5 "/>
<rect x="34.9" y="18.8" width="2.7" height="8.6"/>
<polygon points="40.9,6.4 38.2,6.4 38.2,18.6 38.2,28 40.9,28 "/>
<polygon points="20.9,13.9 18.2,13.9 18.2,27.5 20.9,27.5 20.9,20.4 "/>
<polygon points="47.9,15.8 47.9,5.8 45.2,5.8 45.2,13.3 45.2,27.5 47.9,27.5 "/>
<rect x="48.4" y="16.6" width="2.7" height="11.3"/>
<rect x="51.7" y="9.1" width="2.7" height="18.4"/>
<rect x="54.9" y="10.2" width="2.7" height="17.8"/>
<polygon points="60.9,5.7 60.9,3.7 58.2,3.7 58.2,9.5 58.2,27.5 60.9,27.5 "/>
<polygon points="64.7,10.5 64.7,6.4 62,6.4 62,28 64.7,28 "/>
<polygon points="67.9,16.3 67.9,11.2 65.2,11.2 65.2,28 67.9,28 "/>
<rect x="68.4" y="16.6" width="2.7" height="11.3"/>
<polygon points="74.4,14.5 74.4,9.1 71.7,9.1 71.7,15.9 71.7,27.5 74.4,27.5 "/>
<polygon points="77.6,16.6 77.6,15 74.9,15 74.9,27.5 77.6,27.5 "/>
<rect x="78.7" y="17.2" width="2.7" height="10.3"/>
<polygon points="84.6,14.5 84.6,11.2 81.9,11.2 81.9,16.6 81.9,27.5 84.6,27.5 "/>
<rect x="85.2" y="15" width="2.7" height="12.4"/>
<rect x="41.4" y="13.9" width="2.7" height="13.5"/>
</svg>
