<svg xmlns="http://www.w3.org/2000/svg" viewBox="0 0 123 87" width="123" height="87">
	<style>
		tspan { white-space:pre }
		.shp0 { fill: #000000 } 
	</style>
	<path id="Layer" fill-rule="evenodd" class="shp0" d="M122.7 16.7L122.7 70.4C122.7 73.3 121.9 76.1 120.5 78.4C119.5 80.2 118.1 81.7 116.4 83C113.8 85 110.5 86.2 106.9 86.2L16.1 86.2C12.4 86.2 9 84.9 6.3 82.8C4.6 81.6 3.2 79.9 2.2 78.1C0.9 75.8 0.2 73.2 0.2 70.4L0.2 16.7C0.2 13.3 1.3 10.2 3.1 7.6C4.3 5.9 5.8 4.4 7.6 3.3C10.1 1.7 13 0.8 16.1 0.8L106.9 0.8C110.2 0.8 113.2 1.7 115.7 3.4C117.4 4.6 118.9 6.1 120.1 7.8C121.8 10.3 122.8 13.4 122.7 16.7ZM12.2 7.8L42.3 38L46.7 42.5L52 47.8C57.3 53.1 66 53.1 71.3 47.8L76.2 42.9L80.6 38.5L111.1 8C109.8 7.3 108.4 7 106.9 7L16.1 7C14.7 7 13.4 7.3 12.2 7.8ZM6.9 73.4L37.9 42.4L7.6 12.1C6.8 13.5 6.4 15 6.4 16.7L6.4 70.3C6.4 71.4 6.6 72.4 6.9 73.4ZM112.1 78.5L80.8 47.2L75.9 52.1C72 56 66.9 57.9 61.8 57.9C56.7 57.9 51.6 56 47.7 52.1L42.4 46.8L10.8 78.4C12.3 79.4 14.1 80 16.1 80L106.9 80C108.8 80 110.5 79.5 112.1 78.5ZM116.6 16.6C116.6 15.1 116.3 13.6 115.6 12.3L85.1 42.8L116 73.7C116.4 72.6 116.6 71.5 116.6 70.3L116.6 16.6Z" />
</svg>