<svg xmlns="http://www.w3.org/2000/svg" viewBox="0 0 141 93" width="141" height="93">
	<style>
		tspan { white-space:pre }
		.shp0 { fill: #ffffff } 
	</style>
	<g id="Layer">
		<path id="Layer" fill-rule="evenodd" class="shp0" d="M140.7 5.5L140.7 87.4C140.7 90.2 138.5 92.4 135.7 92.4L5.2 92.4C2.5 92.4 0.2 90.2 0.2 87.4L0.2 5.5C0.2 2.8 2.4 0.5 5.2 0.5L135.8 0.5C138.5 0.5 140.8 2.8 140.7 5.5ZM94.4 72.2L94.4 21.2C94.4 16 90.2 11.8 85 11.8L20.9 11.8C15.7 11.8 11.5 16 11.5 21.2L11.5 72.2C11.5 77.4 15.7 81.6 20.9 81.6L84.9 81.6C90.1 81.6 94.3 77.4 94.3 72.2L94.4 72.2ZM128.8 69.7C128.8 63.4 123.7 58.2 117.3 58.2C111 58.2 105.8 63.3 105.8 69.7C105.8 76 110.9 81.2 117.3 81.2C123.7 81.2 128.8 76.1 128.8 69.7ZM132.1 32.4L106.2 32.4L106.2 39.6L132.1 39.6L132.1 32.4ZM132.1 11.5L106.2 11.5L106.2 23.8L132.1 23.8L132.1 11.5ZM83.7 25.8L83.7 67.4C83.7 69.3 82.2 70.8 80.3 70.8L77.5 70.8C75.6 70.8 74.1 69.3 74.1 67.4L74.1 25.8C74.1 23.9 75.6 22.4 77.5 22.4L80.3 22.4C82.2 22.4 83.8 24 83.7 25.8Z" />
		<path id="Layer" class="shp0" d="M83.8 25.8L83.8 67.4C83.8 69.3 82.3 70.8 80.4 70.8L77.6 70.8C75.7 70.8 74.2 69.3 74.2 67.4L74.2 25.8C74.2 23.9 75.7 22.4 77.6 22.4L80.4 22.4C82.2 22.4 83.8 24 83.8 25.8Z" />
	</g>
</svg>