<?xml version="1.0" encoding="utf-8"?>
<!-- Generator: Adobe Illustrator 25.0.1, SVG Export Plug-In . SVG Version: 6.00 Build 0)  -->
<svg version="1.1" id="Шар_1" xmlns="http://www.w3.org/2000/svg" xmlns:xlink="http://www.w3.org/1999/xlink" x="0px" y="0px"
	 viewBox="0 0 175 165" style="enable-background:new 0 0 175 165;" xml:space="preserve">
<style type="text/css">
	.st0{fill:#FFFFFF;}
</style>
<g>
	<path class="st0" d="M152.8,36.5H22.2c-2.8,0-5,2.3-5,5v81.9c0,2.8,2.3,5,5,5h130.5c2.8,0,5-2.2,5-5V41.5
		C157.8,38.8,155.5,36.5,152.8,36.5z M111.3,108.2c0,5.2-4.2,9.4-9.4,9.4H37.9c-5.2,0-9.4-4.2-9.4-9.4v-51c0-5.2,4.2-9.4,9.4-9.4
		H102c5.2,0,9.4,4.2,9.4,9.4V108.2z M134.3,117.2c-6.4,0-11.5-5.2-11.5-11.5c0-6.4,5.2-11.5,11.5-11.5c6.4,0,11.5,5.2,11.5,11.5
		C145.8,112.1,140.7,117.2,134.3,117.2z M149.1,75.6h-25.9v-7.2h25.9V75.6z M149.1,59.8h-25.9V47.5h25.9V59.8z M97.3,58.4h-2.8
		c-1.9,0-3.4,1.5-3.4,3.4v41.6c0,1.9,1.5,3.4,3.4,3.4h2.8c1.9,0,3.4-1.5,3.4-3.4V61.8C100.8,60,99.2,58.4,97.3,58.4z"/>
	<path class="st0" d="M100.8,61.8v41.6c0,1.9-1.5,3.4-3.4,3.4h-2.8c-1.9,0-3.4-1.5-3.4-3.4V61.8c0-1.9,1.5-3.4,3.4-3.4h2.8
		C99.2,58.4,100.8,60,100.8,61.8z"/>
</g>
</svg>
