<?xml version="1.0" encoding="utf-8"?>
<!-- Generator: Adobe Illustrator 24.2.3, SVG Export Plug-In . SVG Version: 6.00 Build 0)  -->
<svg version="1.1" id="Шар_1" xmlns="http://www.w3.org/2000/svg" xmlns:xlink="http://www.w3.org/1999/xlink" x="0px" y="0px"
	 viewBox="0 0 175 165" style="enable-background:new 0 0 175 165;" xml:space="preserve">
<style type="text/css">
	.st0{fill:#555555;}
	.st1{fill:#FFFFFF;}
</style>
<rect x="0.21" class="st0" width="174.58" height="165"/>
<g>
	<path class="st1" d="M155.27,122.09H24.77c-2.78,0-5.04-2.26-5.04-5.04V35.12c0-2.78,2.26-5.04,5.04-5.04h130.5
		c2.78,0,5.04,2.26,5.04,5.04v81.93C160.31,119.83,158.05,122.09,155.27,122.09z"/>
	<path class="st0" d="M104.49,111.11H40.41c-5.17,0-9.36-4.19-9.36-9.36v-51c0-5.17,4.19-9.36,9.36-9.36h64.08
		c5.17,0,9.36,4.19,9.36,9.36v51C113.85,106.92,109.66,111.11,104.49,111.11z"/>
	<rect x="125.73" y="41.09" class="st0" width="25.92" height="12.24"/>
	<rect x="125.73" y="61.97" class="st0" width="25.92" height="7.2"/>
	<circle class="st0" cx="136.85" cy="99.29" r="11.52"/>
	<path class="st1" d="M99.87,100.49h-2.76c-1.89,0-3.42-1.53-3.42-3.42V55.43c0-1.89,1.53-3.42,3.42-3.42h2.76
		c1.89,0,3.42,1.53,3.42,3.42v41.64C103.29,98.96,101.76,100.49,99.87,100.49z"/>
</g>
</svg>
