<svg xmlns="http://www.w3.org/2000/svg" viewBox="0 0 82 106" width="82" height="106">
	<style>
		tspan { white-space:pre }
		.shp0 { fill: #000000 } 
	</style>
	<path id="Layer" fill-rule="evenodd" class="shp0" d="M81.6 87.5C81.6 97.6 63.4 105.7 40.9 105.7C18.4 105.7 0.2 97.5 0.2 87.5C0.2 78.9 13.8 71.6 32 69.8C24.7 58.5 15.7 43.7 13.8 37.1C10.6 25.7 8.6 1 41.8 0.5C74 0 73.1 25.7 69.9 37.1C68 43.8 58.8 58.6 51.5 69.9C68.9 72 81.6 79.1 81.6 87.5ZM42.1 40.3C48.1 40.3 52.9 35.1 52.9 28.7C52.9 22.3 48 17.1 42.1 17.1C36.1 17.1 31.3 22.3 31.3 28.7C31.3 35.1 36.1 40.3 42.1 40.3ZM77 84.6C77 78.1 65.9 72.6 50.8 70.9C45.9 78.3 42 84 41.8 84.3C41.8 84.3 37.8 78.4 32.7 70.6C16.2 72 3.9 77.8 3.9 84.6C3.9 92.5 20.2 98.9 40.4 98.9C60.6 98.9 77 92.5 77 84.6Z" />
</svg>