<svg xmlns="http://www.w3.org/2000/svg" viewBox="0 0 97 106" width="97" height="106">
	<style>
		tspan { white-space:pre }
		.shp0 { fill: #ffffff } 
	</style>
	<path id="Layer" fill-rule="evenodd" class="shp0" d="M96.3 35.9L96.3 67.5C96.3 74.8 90.6 80.8 83.3 81.3L83.3 96.7C83.3 98.9 82.4 101.1 80.8 102.7C79.2 104.3 77.1 105.2 74.8 105.2L22.1 105.2C17.4 105.2 13.6 101.4 13.6 96.7L13.6 81.2C6.4 80.6 0.6 74.7 0.6 67.4L0.6 36C0.6 28.7 6.3 22.7 13.6 22.2L13.6 13.8C13.6 6.2 19.9 0 27.6 0L69.4 0C77.1 0 83.4 6.2 83.4 13.8L83.4 22.2C90.6 22.7 96.4 28.7 96.3 35.9ZM23.6 22.2L73.4 22.2L73.4 13.8C73.4 11.7 71.6 10 69.4 10L27.6 10C25.4 10 23.6 11.7 23.6 13.8L23.6 22.2ZM73.4 63L23.6 63L23.6 95L73.4 95L73.4 63ZM86.4 35.9C86.4 33.8 84.6 32.1 82.4 32.1L14.6 32.1C12.4 32.1 10.6 33.8 10.6 35.9L10.6 67.3C10.6 69.1 11.9 70.6 13.6 71L13.6 61.5C13.6 56.8 17.4 53 22.1 53L74.9 53C79.6 53 83.4 56.8 83.4 61.5L83.4 71C85.1 70.6 86.4 69.1 86.4 67.3L86.4 35.9Z" />
</svg>