<?xml version="1.0" encoding="utf-8"?>
<!-- Generator: Adobe Illustrator 24.2.3, SVG Export Plug-In . SVG Version: 6.00 Build 0)  -->
<svg version="1.1" id="Шар_1" xmlns="http://www.w3.org/2000/svg" xmlns:xlink="http://www.w3.org/1999/xlink" x="0px" y="0px"
	 viewBox="0 0 175 165" style="enable-background:new 0 0 175 165;" xml:space="preserve">
<style type="text/css">
	.st0{fill:#555555;}
	.st1{fill:none;stroke:#FFFFFF;stroke-width:10;stroke-miterlimit:10;}
</style>
<rect x="0.21" class="st0" width="174.58" height="165"/>
<g>
	<path class="st1" d="M57.62,43.79V30.41c0-4.85,4.03-8.79,9-8.79h41.76c4.97,0,9,3.94,9,8.79v13.38"/>
	<path class="st1" d="M117.38,92.77h4.01c4.97,0,9-3.94,9-8.79V52.58c0-4.86-4.03-8.79-9-8.79h-4.01H57.62h-4.01
		c-4.97,0-9,3.93-9,8.79v31.39c0,4.85,4.03,8.79,9,8.79h4.01"/>
	<path class="st1" d="M113.87,116.68H61.13c-1.94,0-3.51-1.57-3.51-3.51v-35c0-1.94,1.57-3.51,3.51-3.51h52.73
		c1.94,0,3.51,1.57,3.51,3.51v35C117.38,115.11,115.81,116.68,113.87,116.68z"/>
</g>
</svg>
