<?xml version="1.0" encoding="utf-8"?>
<!-- Generator: Adobe Illustrator 25.0.1, SVG Export Plug-In . SVG Version: 6.00 Build 0)  -->
<svg version="1.1" id="Шар_1" xmlns="http://www.w3.org/2000/svg" xmlns:xlink="http://www.w3.org/1999/xlink" x="0px" y="0px"
	 viewBox="0 0 175 165" style="enable-background:new 0 0 175 165;" xml:space="preserve">
<style type="text/css">
	.st0{fill:#FFFFFF;}
</style>
<path class="st0" d="M122.4,52.2v-8.4c0-7.6-6.3-13.8-14-13.8H66.6c-7.7,0-14,6.2-14,13.8v8.4c-7.3,0.5-13,6.5-13,13.8v31.4
	c0,7.3,5.8,13.2,13,13.8v15.5c0,4.7,3.8,8.5,8.5,8.5h52.7c2.3,0,4.4-0.9,6-2.5c1.6-1.6,2.5-3.8,2.5-6v-15.4c7.3-0.5,13-6.5,13-13.8
	V65.9C135.4,58.7,129.6,52.7,122.4,52.2z M62.6,43.8c0-2.1,1.8-3.8,4-3.8h41.8c2.2,0,4,1.7,4,3.8v8.4H62.6V43.8z M112.4,125H62.6V93
	h49.8V125z M125.4,97.3c0,1.8-1.3,3.3-3,3.7v-9.5c0-4.7-3.8-8.5-8.5-8.5H61.1c-4.7,0-8.5,3.8-8.5,8.5v9.5c-1.7-0.4-3-1.9-3-3.7V65.9
	c0-2.1,1.8-3.8,4-3.8h67.8c2.2,0,4,1.7,4,3.8V97.3z"/>
</svg>
