<svg xmlns="http://www.w3.org/2000/svg" viewBox="0 0 101 103" width="101" height="103">
	<style>
		tspan { white-space:pre }
		.shp0 { fill: #ffffff } 
	</style>
	<path id="Layer" fill-rule="evenodd" class="shp0" d="M98 100.9C96.8 102 95.2 102.5 93.7 102.5C91.9 102.5 90.1 101.8 88.8 100.3L66.3 74.8C59.6 79.1 51.6 81.6 42.9 81.6C19.6 81.6 0.6 63.4 0.6 41.1C0.6 18.8 19.6 0.6 42.9 0.6C66.2 0.6 85.2 18.8 85.2 41.1C85.2 50.5 81.9 59.1 76.2 66L98.7 91.5C101.1 94.2 100.8 98.4 98 100.9ZM42.9 68.4C58.9 68.4 72 56.2 72 41.1C72 26 59 13.7 42.9 13.7C26.9 13.7 13.8 26 13.8 41.1C13.8 56.1 26.9 68.4 42.9 68.4Z" />
</svg>