<svg xmlns="http://www.w3.org/2000/svg">
   
  <defs id="place" viewBox="0 0 82 106">
    <path fill-rule="evenodd" class="shp0" d="M81.6 87.5C81.6 97.6 63.4 105.7 40.9 105.7C18.4 105.7 0.2 97.5 0.2 87.5C0.2 78.9 13.8 71.6 32 69.8C24.7 58.5 15.7 43.7 13.8 37.1C10.6 25.7 8.6 1 41.8 0.5C74 0 73.1 25.7 69.9 37.1C68 43.8 58.8 58.6 51.5 69.9C68.9 72 81.6 79.1 81.6 87.5ZM42.1 40.3C48.1 40.3 52.9 35.1 52.9 28.7C52.9 22.3 48 17.1 42.1 17.1C36.1 17.1 31.3 22.3 31.3 28.7C31.3 35.1 36.1 40.3 42.1 40.3ZM77 84.6C77 78.1 65.9 72.6 50.8 70.9C45.9 78.3 42 84 41.8 84.3C41.8 84.3 37.8 78.4 32.7 70.6C16.2 72 3.9 77.8 3.9 84.6C3.9 92.5 20.2 98.9 40.4 98.9C60.6 98.9 77 92.5 77 84.6Z" />
  </defs>
  <defs id="fb" viewBox="0 0 123 125">
    <path d="M123.1 26.3L123.1 98.7C123.1 113 111.4 124.8 97 124.8L71.9 124.8L71.9 82.7L87.5 82.7L87.5 62.7L71.9 62.7L71.9 51.8L71.9 51.8C71.8 48.4 72.1 45 73.8 45C75.5 45 89.6 44.9 89.6 44.9L89.6 26.1C89.6 26.1 76.6 26.2 65 26.4C53.4 26.6 50.7 41.4 50.7 41.4L50.8 51.8L50.8 62.7L35.1 62.7L35.1 82.6L50.7 82.6L50.7 124.7L26 124.7C11.7 124.7 -0.1 113 -0.1 98.6L-0.1 26.3C-0.1 12 11.6 0.2 26 0.2L97 0.2C111.3 0.2 123.1 11.9 123.1 26.3Z" />
  </defs>
</svg>