<?xml version="1.0" encoding="utf-8"?>
<!-- Generator: Adobe Illustrator 24.2.3, SVG Export Plug-In . SVG Version: 6.00 Build 0)  -->
<svg version="1.1" id="Шар_1" xmlns="http://www.w3.org/2000/svg" xmlns:xlink="http://www.w3.org/1999/xlink" x="0px" y="0px"
	 viewBox="0 0 175 165" style="enable-background:new 0 0 175 165;" xml:space="preserve">
<style type="text/css">
	.st0{fill:#555555;}
	.st1{fill:none;}
	.st2{fill:#FFFFFF;}
	.st3{fill:none;stroke:#FFFFFF;stroke-width:2;stroke-miterlimit:10;}
	.st4{fill:none;stroke:#FFFFFF;stroke-width:0.5;stroke-miterlimit:10;}
	.st5{fill:none;stroke:#FFFFFF;stroke-width:0.25;stroke-miterlimit:10;}
	.st6{fill:none;stroke:#555555;stroke-miterlimit:10;}
	.st7{fill:#555555;stroke:#FFFFFF;stroke-miterlimit:10;}
	.st8{fill:#FFFFFF;stroke:#FFFFFF;stroke-miterlimit:10;}
	.st9{fill:#FFFFFF;stroke:#555555;stroke-miterlimit:10;}
</style>
<rect x="0.21" class="st0" width="174.58" height="165"/>
<line class="st1" x1="130.97" y1="67.72" x2="127.21" y2="49.06"/>
<g>
	<g>
		<rect x="110.08" y="33.36" class="st2" width="23.02" height="12.71"/>
		<rect x="43.26" y="33.33" class="st2" width="23.02" height="12.71"/>
		<rect x="73.15" y="22.71" class="st3" width="30.92" height="17.01"/>
		<g>
			<line class="st4" x1="75.51" y1="36.19" x2="76.45" y2="34.56"/>
			<line class="st4" x1="77.87" y1="36.53" x2="76.45" y2="34.56"/>
			<line class="st4" x1="79.03" y1="25.2" x2="77.87" y2="36.53"/>
			<line class="st4" x1="80.53" y1="36.58" x2="79.03" y2="25.2"/>
			<line class="st4" x1="81.31" y1="34.47" x2="80.53" y2="36.58"/>
			<line class="st4" x1="82.68" y1="36.53" x2="81.31" y2="34.47"/>
			<line class="st4" x1="83.71" y1="25.11" x2="82.68" y2="36.53"/>
			<line class="st4" x1="85.04" y1="36.36" x2="83.71" y2="25.11"/>
			<line class="st4" x1="85.69" y1="34.64" x2="85.04" y2="36.36"/>
			<line class="st4" x1="87.02" y1="36.41" x2="85.69" y2="34.64"/>
			<line class="st4" x1="88.31" y1="25.41" x2="87.02" y2="36.41"/>
			<line class="st4" x1="89.47" y1="36.49" x2="88.31" y2="25.41"/>
			<line class="st4" x1="90.41" y1="34.6" x2="89.47" y2="36.49"/>
			<line class="st4" x1="91.7" y1="36.62" x2="90.41" y2="34.6"/>
			<line class="st4" x1="92.73" y1="25.15" x2="91.7" y2="36.62"/>
			<line class="st4" x1="94.06" y1="36.45" x2="92.73" y2="25.15"/>
			<line class="st4" x1="94.92" y1="34.69" x2="94.06" y2="36.45"/>
			<line class="st4" x1="96.25" y1="36.62" x2="94.92" y2="34.69"/>
			<line class="st4" x1="97.37" y1="25.28" x2="96.25" y2="36.62"/>
			<line class="st4" x1="98.66" y1="36.53" x2="97.37" y2="25.28"/>
			<line class="st4" x1="99.34" y1="34.6" x2="98.66" y2="36.53"/>
			<line class="st4" x1="100.89" y1="36.71" x2="99.34" y2="34.6"/>
			<line class="st4" x1="101.58" y1="35.65" x2="100.89" y2="36.71"/>
		</g>
		<rect x="83.2" y="39.92" class="st2" width="11.29" height="3.7"/>
		<rect x="80.92" y="43.63" class="st2" width="15.89" height="1.52"/>
		
			<ellipse transform="matrix(0.9347 -0.3555 0.3555 0.9347 -2.3926 41.2677)" class="st2" cx="111.08" cy="27.14" rx="1.29" ry="0.89"/>
		<line class="st5" x1="111.46" y1="20.64" x2="111.77" y2="26.77"/>
		<line class="st4" x1="113.98" y1="21.56" x2="111.46" y2="20.64"/>
		
			<ellipse transform="matrix(0.9546 -0.2979 0.2979 0.9546 -2.2904 36.2235)" class="st2" cx="117.7" cy="25.63" rx="1.43" ry="0.97"/>
		
			<ellipse transform="matrix(0.9546 -0.2979 0.2979 0.9546 -1.8105 37.7881)" class="st2" cx="123.07" cy="24.83" rx="1.43" ry="0.97"/>
		<line class="st4" x1="119.82" y1="19.38" x2="118.79" y2="24.83"/>
		<line class="st4" x1="125.24" y1="19.27" x2="124.05" y2="24.42"/>
		<line class="st4" x1="119.82" y1="19.38" x2="125.24" y2="19.27"/>
		<line class="st4" x1="119.31" y1="21.33" x2="124.82" y2="21.1"/>
		
			<ellipse transform="matrix(0.1196 -0.9928 0.9928 0.1196 84.7638 150.3638)" class="st2" cx="127.17" cy="27.39" rx="0.89" ry="1.29"/>
		<line class="st5" x1="130.52" y1="21.8" x2="127.95" y2="27.38"/>
		<line class="st4" x1="132.32" y1="23.79" x2="130.52" y2="21.8"/>
		
			<ellipse transform="matrix(0.8379 -0.5458 0.5458 0.8379 -8.6239 29.495)" class="st2" cx="45.35" cy="29.27" rx="1.29" ry="0.89"/>
		<line class="st5" x1="44.33" y1="22.84" x2="45.94" y2="28.76"/>
		<line class="st4" x1="46.99" y1="23.2" x2="44.33" y2="22.84"/>
		
			<ellipse transform="matrix(0.8696 -0.4937 0.4937 0.8696 -6.3117 28.8591)" class="st2" cx="51.49" cy="26.38" rx="1.43" ry="0.97"/>
		
			<ellipse transform="matrix(0.8696 -0.4937 0.4937 0.8696 -4.704 31.1188)" class="st2" cx="56.57" cy="24.47" rx="1.43" ry="0.97"/>
		<line class="st4" x1="52.23" y1="19.83" x2="52.39" y2="25.37"/>
		<line class="st4" x1="57.51" y1="18.57" x2="57.44" y2="23.86"/>
		<line class="st4" x1="52.23" y1="19.83" x2="57.51" y2="18.57"/>
		<line class="st4" x1="52.15" y1="21.84" x2="57.49" y2="20.45"/>
		
			<ellipse transform="matrix(0.9956 -0.0938 0.0938 0.9956 -2.1776 5.8473)" class="st2" cx="61.12" cy="26.09" rx="1.29" ry="0.89"/>
		<line class="st5" x1="63.21" y1="19.92" x2="61.88" y2="25.92"/>
		<line class="st4" x1="65.39" y1="21.48" x2="63.21" y2="19.92"/>
		<rect x="39.39" y="47.61" class="st2" width="97.4" height="5.15"/>
		<g>
			<polygon class="st2" points="136.79,55.34 39.39,55.34 27.32,65.14 149.48,65.14 			"/>
			<rect x="27.32" y="65.14" class="st2" width="122.16" height="3.09"/>
		</g>
		<g>
			<line class="st6" x1="112.51" y1="61.79" x2="139.49" y2="61.79"/>
			<line class="st6" x1="75.55" y1="61.81" x2="102.54" y2="61.81"/>
			<line class="st6" x1="38.1" y1="61.81" x2="65.08" y2="61.81"/>
		</g>
		<g>
			<polygon class="st0" points="44.01,56.96 42.34,57.03 43.11,56.03 44.55,56.06 			"/>
			<polygon class="st0" points="41.47,59.44 39.8,59.5 40.57,58.51 42,58.54 			"/>
			<polygon class="st0" points="47.19,57.05 45.53,57.12 46.3,56.12 47.73,56.15 			"/>
			<polygon class="st0" points="45.05,59.44 43.38,59.5 44.15,58.51 45.58,58.54 			"/>
			<rect x="89.25" y="56.07" class="st0" width="1.72" height="0.77"/>
			<rect x="92.41" y="56.2" class="st0" width="1.72" height="0.77"/>
			<rect x="95.75" y="56.2" class="st0" width="1.72" height="0.77"/>
			<rect x="99.09" y="56.2" class="st0" width="1.72" height="0.77"/>
			<rect x="82.63" y="56.2" class="st0" width="1.72" height="0.77"/>
			<rect x="85.73" y="56.2" class="st0" width="1.72" height="0.77"/>
			<rect x="82.15" y="58.59" class="st0" width="1.72" height="0.77"/>
			<rect x="85.73" y="58.59" class="st0" width="1.72" height="0.77"/>
			<rect x="89.31" y="58.59" class="st0" width="1.72" height="0.77"/>
			<rect x="92.89" y="58.59" class="st0" width="1.72" height="0.77"/>
			<rect x="96.47" y="58.59" class="st0" width="1.72" height="0.77"/>
			<rect x="99.81" y="58.59" class="st0" width="1.72" height="0.77"/>
			<g>
				<polygon class="st0" points="110.71,56.97 109.11,56.97 108.65,55.95 110.25,55.95 				"/>
				<polygon class="st0" points="114.28,56.92 112.68,56.92 112.22,55.9 113.82,55.9 				"/>
				<polygon class="st0" points="117.38,56.92 115.78,56.92 115.32,55.9 116.92,55.9 				"/>
				<polygon class="st0" points="120.96,56.92 119.36,56.92 118.9,55.9 120.5,55.9 				"/>
				<polygon class="st0" points="124.06,56.92 122.46,56.92 122,55.9 123.6,55.9 				"/>
				<polygon class="st0" points="127.4,56.92 125.8,56.92 125.34,55.9 126.94,55.9 				"/>
				<polygon class="st0" points="130.98,56.92 129.38,56.92 128.92,55.9 130.52,55.9 				"/>
				<polygon class="st0" points="134.32,56.92 132.72,56.92 132.26,55.9 133.86,55.9 				"/>
			</g>
			<g>
				<polygon class="st0" points="112.26,59.57 110.65,59.57 110.2,58.55 111.8,58.55 				"/>
				<polygon class="st0" points="115.83,59.52 114.22,59.52 113.77,58.5 115.37,58.5 				"/>
				<polygon class="st0" points="118.93,59.52 117.32,59.52 116.87,58.5 118.47,58.5 				"/>
				<polygon class="st0" points="122.51,59.52 120.9,59.52 120.45,58.5 122.05,58.5 				"/>
				<polygon class="st0" points="125.61,59.52 124.01,59.52 123.55,58.5 125.15,58.5 				"/>
				<polygon class="st0" points="128.95,59.52 127.35,59.52 126.89,58.5 128.49,58.5 				"/>
				<polygon class="st0" points="132.53,59.52 130.92,59.52 130.47,58.5 132.07,58.5 				"/>
				<polygon class="st0" points="135.87,59.52 134.26,59.52 133.81,58.5 135.41,58.5 				"/>
			</g>
		</g>
		<g>
			<g>
				<g>
					<circle class="st7" cx="50.23" cy="39.76" r="4.36"/>
				</g>
				<circle class="st8" cx="50.23" cy="39.76" r="1.03"/>
			</g>
			<g>
				<g>
					<circle class="st7" cx="59.31" cy="39.49" r="4.36"/>
				</g>
				<circle class="st8" cx="59.31" cy="39.49" r="1.03"/>
			</g>
		</g>
		<g>
			<g>
				<g>
					<circle class="st7" cx="117.5" cy="39.62" r="4.36"/>
				</g>
				<circle class="st8" cx="117.5" cy="39.62" r="1.03"/>
			</g>
			<g>
				<g>
					<circle class="st7" cx="126.57" cy="39.35" r="4.36"/>
				</g>
				<circle class="st8" cx="126.57" cy="39.35" r="1.03"/>
			</g>
		</g>
	</g>
	<g>
		<circle class="st9" cx="68.89" cy="51.97" r="10.57"/>
		<path class="st9" d="M71.13,93.46h-4.6c-5.88,0-10.69-4.81-10.69-10.69V67.54c0-5.88,4.81-10.69,10.69-10.69h4.6
			c5.88,0,10.69,4.81,10.69,10.69v15.23C81.82,88.64,77.01,93.46,71.13,93.46z"/>
		<path class="st9" d="M78.3,115.28H49.19c-1.06,0-1.92-0.87-1.92-1.92v-1.16c0-1.06,0.87-1.92,1.92-1.92H78.3
			c1.06,0,1.92,0.87,1.92,1.92v1.16C80.22,114.41,79.36,115.28,78.3,115.28z"/>
		<path class="st2" d="M84.15,108.7l-1.68-0.34c-2.15-0.43-3.55-2.54-3.12-4.69L83,85.44c0.43-2.15,2.54-3.55,4.69-3.12l1.68,0.34
			c2.15,0.43,3.55,2.54,3.12,4.69l-3.65,18.23C88.41,107.73,86.3,109.13,84.15,108.7z"/>
		<path class="st2" d="M64.86,113.89h-1.72c-1.57,0-2.86-1.29-2.86-2.86v-17.3c0-1.57,1.29-2.86,2.86-2.86h1.72
			c1.57,0,2.86,1.29,2.86,2.86v17.3C67.72,112.6,66.43,113.89,64.86,113.89z"/>
		<path class="st9" d="M83.4,95.03H65.31c-1.73,0-3.14-1.41-3.14-3.14V90c0-1.73,1.41-3.14,3.14-3.14H83.4
			c1.73,0,3.14,1.41,3.14,3.14v1.89C86.54,93.62,85.13,95.03,83.4,95.03z"/>
		<path class="st9" d="M72.76,95.32H48.63c-3.23,0-5.88-2.64-5.88-5.88V61.97c0-3.23,2.64-5.88,5.88-5.88h24.14
			c3.23,0,5.88,2.64,5.88,5.88v27.47C78.64,92.68,76,95.32,72.76,95.32z"/>
		<polygon class="st2" points="84.7,86.35 80.36,86.35 79.96,82.48 86.32,82.58 		"/>
		<path class="st2" d="M90.96,78.07h-7.97c-1.8,0-3.28-1.48-3.28-3.28v0c0-1.8,0-4.83,1.71-4.19l9.54,0.91
			c1.8,0,3.28,1.48,3.28,3.28v0C94.24,76.59,92.76,78.07,90.96,78.07z"/>
		<path class="st2" d="M83.34,94.71H67.72v-7.39h14.9l3.17,5.28C85.86,93.36,84.15,94.71,83.34,94.71z"/>
	</g>
</g>
</svg>
