<svg xmlns="http://www.w3.org/2000/svg" viewBox="0 0 135 129" width="135" height="129">
	<style>
		tspan { white-space:pre }
		.shp0 { fill: #000000 } 
	</style>
	<path id="Layer" fill-rule="evenodd" class="shp0" d="M134.1 31.5L134.1 97.4C134.1 114.8 119.9 129 102.5 129L31.8 129C14.4 129 0.2 114.8 0.2 97.4L0.2 31.5C0.2 14.1 14.4 -0.1 31.8 -0.1L102.5 -0.1C119.9 -0.1 134.1 14.1 134.1 31.5ZM104.6 41.5L98.7 41.8L102.5 34.8L93.3 37.8C66.4 24.9 65.8 52.9 65.8 52.9C65.8 52.9 49.3 54 35 36.7C35 36.7 31.5 54 38.5 56.4C38.5 56.4 34.7 56.4 32.3 55.3C32.3 55.3 30.7 70.9 51.2 82C51.2 82 35.7 87.7 32 86.7C36.1 88 90.7 105.5 96 63.1C96.8 56.6 99 47.4 99 47.4L104.6 41.5Z" />
</svg>