<svg xmlns="http://www.w3.org/2000/svg" viewBox="0 0 135 99" width="135" height="99">
	<style>
		tspan { white-space:pre }
		.shp0 { fill: #ffffff } 
	</style>
	<g id="Layer">
		<path id="Layer" class="shp0" d="M97 74C95.3 76.3 91.7 76.6 88.9 74.6C88.5 74.3 88.2 74 87.9 73.7L87.8 73.8C82.7 69.1 75.4 66.2 67.3 66.2C59.6 66.2 52.6 68.9 47.6 73.2L47.4 73C47 73.4 46.6 73.7 46.2 74C43.4 75.9 39.8 75.6 38.2 73.2C36.7 71.1 37.3 68.1 39.4 66.1C39.4 66.1 39.4 66.1 39.5 66C39.7 65.8 39.8 65.7 40 65.6C47.1 59.7 56.7 56.2 67.3 56.2C78.6 56.2 88.7 60.3 95.9 66.8L95.8 66.9C98.1 68.8 98.6 71.9 97 74Z" />
		<path id="Layer" class="shp0" d="M113.2 54.8C111.4 55.8 109.2 55.5 107.6 54.1L107.6 54.1C97.4 43.6 83.2 37.2 67.5 37.2C52.2 37.2 38.3 43.3 28.2 53.3C26.5 55.4 23.7 56.1 21.6 54.7C19.4 53.2 18.9 50.1 20.5 47.7C20.8 47.3 21 47 21.4 46.7L21.4 46.7C33.2 34.9 49.6 27.7 67.6 27.7C85.4 27.7 101.6 34.8 113.4 46.3L113.4 46.3C113.8 46.7 114.1 47 114.5 47.4L114.5 47.4C114.6 47.6 114.7 47.7 114.9 47.9C116.2 50.4 115.5 53.5 113.2 54.8Z" />
		<path id="Layer" class="shp0" d="M132.9 36.1C130.9 37.6 128.1 37.4 126 35.8L125.9 35.9C111 20.7 90.3 11.3 67.4 11.3C45 11.3 24.7 20.3 9.9 34.9L9.9 34.9C8.9 36.1 7.3 36.9 5.6 36.9C2.5 36.9 0 34.4 0 31.3C0 29.6 0.7 28.1 1.9 27.1L1.9 27.1C18.7 10.4 41.9 0.1 67.5 0.1C92.7 0.1 115.5 10.1 132.3 26.4C132.8 26.9 133.3 27.4 133.8 27.9C133.8 27.9 133.8 27.9 133.8 28C135.7 30.7 135.3 34.2 132.9 36.1Z" />
		<path id="Layer" class="shp0" d="M67.8 98.9C62.44 98.9 58.1 94.56 58.1 89.2C58.1 83.84 62.44 79.5 67.8 79.5C73.16 79.5 77.5 83.84 77.5 89.2C77.5 94.56 73.16 98.9 67.8 98.9Z" />
	</g>
</svg>