<?xml version="1.0" encoding="utf-8"?>
<!-- Generator: Adobe Illustrator 25.0.1, SVG Export Plug-In . SVG Version: 6.00 Build 0)  -->
<svg version="1.1" id="Шар_1" xmlns="http://www.w3.org/2000/svg" xmlns:xlink="http://www.w3.org/1999/xlink" x="0px" y="0px"
	 viewBox="0 0 175 165" style="enable-background:new 0 0 175 165;" xml:space="preserve">
<style type="text/css">
	.st0{fill:#FFFFFF;}
</style>
<g>
	<path class="st0" d="M117,107c-1.7,2.3-5.3,2.6-8.1,0.6c-0.4-0.3-0.7-0.6-1-0.9l-0.1,0.1c-5.1-4.7-12.4-7.6-20.5-7.6
		c-7.7,0-14.7,2.7-19.7,7l-0.2-0.2c-0.4,0.4-0.8,0.7-1.2,1c-2.8,1.9-6.4,1.6-8-0.8c-1.5-2.1-0.9-5.1,1.2-7.1c0,0,0,0,0.1-0.1
		c0.2-0.2,0.3-0.3,0.5-0.4c7.1-5.9,16.7-9.4,27.3-9.4c11.3,0,21.4,4.1,28.6,10.6l-0.1,0.1C118.1,101.8,118.6,104.9,117,107z"/>
	<path class="st0" d="M133.2,87.8c-1.8,1-4,0.7-5.6-0.7l0,0c-10.2-10.5-24.4-16.9-40.1-16.9c-15.3,0-29.2,6.1-39.3,16.1
		c-1.7,2.1-4.5,2.8-6.6,1.4c-2.2-1.5-2.7-4.6-1.1-7c0.3-0.4,0.5-0.7,0.9-1l0,0c11.8-11.8,28.2-19,46.2-19c17.8,0,34,7.1,45.8,18.6
		c0,0,0,0,0,0c0.4,0.4,0.7,0.7,1.1,1.1c0,0,0,0,0,0c0.1,0.2,0.2,0.3,0.4,0.5C136.2,83.4,135.5,86.5,133.2,87.8z"/>
	<path class="st0" d="M152.9,69.1c-2,1.5-4.8,1.3-6.9-0.3l-0.1,0.1C131,53.7,110.3,44.3,87.4,44.3c-22.4,0-42.7,9-57.5,23.6
		c0,0,0,0,0,0c-1,1.2-2.6,2-4.3,2c-3.1,0-5.6-2.5-5.6-5.6c0-1.7,0.7-3.2,1.9-4.2l0,0c16.8-16.7,40-27,65.6-27
		c25.2,0,48,10,64.8,26.3c0.5,0.5,1,1,1.5,1.5c0,0,0,0,0,0.1C155.7,63.7,155.3,67.2,152.9,69.1z"/>
	<circle class="st0" cx="87.8" cy="122.2" r="9.7"/>
</g>
</svg>
