<svg xmlns="http://www.w3.org/2000/svg" viewBox="0 0 140 140" width="140" height="140">
	<style>
		tspan { white-space:pre }
		.shp0 { fill: #000000 } 
	</style>
	<g id="Layer">
		<path id="Layer" class="shp0" d="M60.2 59.2L80.5 72L60.4 81.5L60.2 59.2Z" />
		<path id="Layer" fill-rule="evenodd" class="shp0" d="M139.8 31.6L139.8 109C139.8 126.1 125.8 140.1 108.7 140.1L32 140.1C14.9 140.1 0.9 126.1 0.9 109L0.9 31.6C0.9 14.5 14.9 0.5 32 0.5L108.7 0.5C125.8 0.5 139.8 14.5 139.8 31.6ZM107.4 56.8C107.4 49.1 101.1 42.9 93.5 42.9L45.9 42.9C38.2 42.9 32 49.2 32 56.8L32 85.2C32 92.9 38.3 99.1 45.9 99.1L93.5 99.1C101.2 99.1 107.4 92.8 107.4 85.2L107.4 56.8Z" />
		<path id="Layer" class="shp0" d="M80.5 72L60.4 81.5L60.2 59.2L80.5 72Z" />
		<path id="Layer" class="shp0" d="M80.5 72L60.4 81.5L60.2 59.2L80.5 72Z" />
	</g>
</svg>