<?xml version="1.0" encoding="utf-8"?>
<!-- Generator: Adobe Illustrator 24.2.3, SVG Export Plug-In . SVG Version: 6.00 Build 0)  -->
<svg version="1.1" id="Шар_1" xmlns="http://www.w3.org/2000/svg" xmlns:xlink="http://www.w3.org/1999/xlink" x="0px" y="0px"
	 viewBox="0 0 175 165" style="enable-background:new 0 0 175 165;" xml:space="preserve">
<g>
	<polygon points="81.2,66.2 101.5,79 81.4,88.5 	"/>
	<path d="M129.7,7.5H53c-17.1,0-31.1,14-31.1,31.1V116c0,17.1,14,31.1,31.1,31.1h76.7c17.1,0,31.1-14,31.1-31.1V38.6
		C160.8,21.5,146.8,7.5,129.7,7.5z M128.4,92.2c0,7.6-6.2,13.9-13.9,13.9H66.9c-7.6,0-13.9-6.2-13.9-13.9V63.8
		c0-7.6,6.2-13.9,13.9-13.9h47.6c7.6,0,13.9,6.2,13.9,13.9V92.2z"/>
	<polygon points="101.5,79 81.4,88.5 81.2,66.2 	"/>
	<polygon points="101.5,79 81.4,88.5 81.2,66.2 	"/>
</g>
</svg>
